<svg width="1920" height="1080" xmlns="http://www.w3.org/2000/svg">
<defs>
<filter id="s" x="-2%" y="-2%" width="104%" height="106%"><feDropShadow dx="0" dy="2" stdDeviation="4" flood-color="#000" flood-opacity="0.06"/></filter>
<filter id="sl" x="-2%" y="-2%" width="104%" height="106%"><feDropShadow dx="0" dy="1" stdDeviation="2" flood-color="#000" flood-opacity="0.04"/></filter>
<linearGradient id="h" x1="0" y1="0" x2="1" y2="0"><stop offset="0%" stop-color="#165DFF"/><stop offset="100%" stop-color="#4080FF"/></linearGradient><linearGradient id="h2" x1="0" y1="0" x2="1" y2="0"><stop offset="0%" stop-color="#4E5969"/><stop offset="100%" stop-color="#4080FF"/></linearGradient>
<marker id="a" markerWidth="10" markerHeight="7" refX="9" refY="3.5" orient="auto"><polygon points="0 0,10 3.5,0 7" fill="#165DFF"/></marker>
</defs>
<rect width="1920" height="1080" fill="#FFFFFF"/>
<rect x="0" y="0" width="1920" height="100" fill="#F5F7FA"/>
<rect x="0" y="100" width="1920" height="1" fill="#E5E6EB"/>

<rect x="0" y="0" width="1920" height="1080" fill="#F5F7FA"/>
<rect x="0" y="0" width="1920" height="6" fill="#165DFF"/>
<rect x="460" y="280" width="1000" height="520" fill="#FFFFFF" rx="8"/>
<rect x="460" y="280" width="1000" height="6" fill="url(#h0)"/>
<text x="550" y="420" font-family="Microsoft YaHei,sans-serif" font-size="52" font-weight="bold" fill="#1D2129">科技馆</text><text x="550" y="490" font-family="Microsoft YaHei,sans-serif" font-size="36" font-weight="bold" fill="#165DFF">建筑设计</text>
<text x="550" y="560" font-family="Microsoft YaHei,sans-serif" font-size="16" fill="#86909C">—— 功能设计与技术指标 ——</text>
<text x="550" y="630" font-family="Microsoft YaHei,sans-serif" font-size="16" fill="#4E5969">团队名称：不学BIM</text>
<text x="550" y="665" font-family="Microsoft YaHei,sans-serif" font-size="14" fill="#86909C">指导老师：张晓杰   王宪</text>
<text x="80" y="1072" font-family="Microsoft YaHei,sans-serif" font-size="12" fill="#C9CDD4">来源：科技馆建筑设计 · 不学BIM</text></svg>