<svg width="1920" height="1080" xmlns="http://www.w3.org/2000/svg">
<defs>
<filter id="s" x="-2%" y="-2%" width="104%" height="106%"><feDropShadow dx="0" dy="2" stdDeviation="4" flood-color="#000" flood-opacity="0.06"/></filter>
<filter id="sl" x="-2%" y="-2%" width="104%" height="106%"><feDropShadow dx="0" dy="1" stdDeviation="2" flood-color="#000" flood-opacity="0.04"/></filter>
<linearGradient id="h" x1="0" y1="0" x2="1" y2="0"><stop offset="0%" stop-color="#165DFF"/><stop offset="100%" stop-color="#4080FF"/></linearGradient><linearGradient id="h2" x1="0" y1="0" x2="1" y2="0"><stop offset="0%" stop-color="#4E5969"/><stop offset="100%" stop-color="#4080FF"/></linearGradient>
<marker id="a" markerWidth="10" markerHeight="7" refX="9" refY="3.5" orient="auto"><polygon points="0 0,10 3.5,0 7" fill="#165DFF"/></marker>
</defs>
<rect width="1920" height="1080" fill="#FFFFFF"/>
<rect x="0" y="0" width="1920" height="100" fill="#F5F7FA"/>
<rect x="0" y="100" width="1920" height="1" fill="#E5E6EB"/>
<text x="80" y="58" font-family="Microsoft YaHei,sans-serif" font-size="26" font-weight="bold" fill="#1D2129">科技馆</text><text x="80" y="82" font-family="Microsoft YaHei,sans-serif" font-size="14" fill="#4E5969">功能设计与技术指标</text><rect x="1820" y="16" width="44" height="28" rx="14" fill="#E8F0FF"/><text x="1836" y="36" font-family="Microsoft YaHei,sans-serif" font-size="13" font-weight="bold" fill="#165DFF">6/12</text>
<rect x="40" y="124" width="1840" height="928" fill="#FAFBFC" rx="10" filter="url(#s)"/>
<rect x="58" y="140" width="200" height="36" rx="8" fill="url(#h0)"/>
<text x="74" y="164" font-family="Microsoft YaHei,sans-serif" font-size="17" font-weight="bold" fill="#FFFFFF">经济技术指标</text>
<rect x="70" y="220" width="870" height="100" fill="#FFFFFF" rx="8"/><rect x="960" y="220" width="890" height="100" fill="#FFFFFF" rx="8"/><text x="90" y="255" font-family="Microsoft YaHei,sans-serif" font-size="15" fill="#86909C">总建筑面积</text><text x="350" y="255" font-family="Microsoft YaHei,sans-serif" font-size="15" fill="#1D2129">约 2,600㎡</text><text x="980" y="255" font-family="Microsoft YaHei,sans-serif" font-size="15" fill="#86909C">建筑层数</text><text x="1250" y="255" font-family="Microsoft YaHei,sans-serif" font-size="15" fill="#1D2129">地上 2 层</text><rect x="70" y="330" width="870" height="100" fill="#F7F8FA" rx="8"/><rect x="960" y="330" width="890" height="100" fill="#F7F8FA" rx="8"/><text x="90" y="365" font-family="Microsoft YaHei,sans-serif" font-size="15" fill="#86909C">建筑高度</text><text x="350" y="365" font-family="Microsoft YaHei,sans-serif" font-size="15" fill="#1D2129">9.0m</text><text x="980" y="365" font-family="Microsoft YaHei,sans-serif" font-size="15" fill="#86909C">结构形式</text><text x="1250" y="365" font-family="Microsoft YaHei,sans-serif" font-size="15" fill="#1D2129">钢筋混凝土框架结构</text><rect x="70" y="440" width="870" height="100" fill="#FFFFFF" rx="8"/><rect x="960" y="440" width="890" height="100" fill="#FFFFFF" rx="8"/><text x="90" y="475" font-family="Microsoft YaHei,sans-serif" font-size="15" fill="#86909C">设计使用年限</text><text x="350" y="475" font-family="Microsoft YaHei,sans-serif" font-size="15" fill="#1D2129">50 年</text><text x="980" y="475" font-family="Microsoft YaHei,sans-serif" font-size="15" fill="#86909C">耐火等级</text><text x="1250" y="475" font-family="Microsoft YaHei,sans-serif" font-size="15" fill="#1D2129">二级</text><rect x="70" y="550" width="870" height="100" fill="#F7F8FA" rx="8"/><rect x="960" y="550" width="890" height="100" fill="#F7F8FA" rx="8"/><text x="90" y="585" font-family="Microsoft YaHei,sans-serif" font-size="15" fill="#86909C">抗震设防烈度</text><text x="350" y="585" font-family="Microsoft YaHei,sans-serif" font-size="15" fill="#1D2129">7 度</text><text x="980" y="585" font-family="Microsoft YaHei,sans-serif" font-size="15" fill="#86909C">屋面防水等级</text><text x="1250" y="585" font-family="Microsoft YaHei,sans-serif" font-size="15" fill="#1D2129">I 级</text><text x="80" y="1072" font-family="Microsoft YaHei,sans-serif" font-size="12" fill="#C9CDD4">来源：科技馆建筑设计 · 不学BIM</text></svg>