<?xml version="1.0" encoding="UTF-8"?>
<svg xmlns="http://www.w3.org/2000/svg" viewBox="0 0 1200 900" font-family="Microsoft YaHei, sans-serif">
<rect width="1200" height="900" fill="white"/>
<style>
.ic-body { fill:#E3F2FD; stroke:#1565C0; stroke-width:2.5; }
.ic-pin { stroke:#1565C0; stroke-width:1.5; }
.ic-pin-txt { fill:#1565C0; font-size:10px; }
.ic-title { fill:#1565C0; font-size:12px; font-weight:bold; text-anchor:middle; }
.netlabel { fill:#1A237E; font-size:9px; font-weight:bold; }
.nl-u { fill:#1565C0; font-size:9px; font-weight:bold; }
.nl-btn { fill:#8B4513; font-size:9px; font-weight:bold; }
.nl-led { fill:#C62828; font-size:9px; font-weight:bold; }
.nl-seg { fill:#6A1B9A; font-size:9px; font-weight:bold; }
.nl-xtal { fill:#00838F; font-size:9px; font-weight:bold; }
.cmp { stroke:#333; stroke-width:1.5; fill:none; }
.cmp-f { stroke:#333; stroke-width:1.5; fill:#f5f5f5; }
.t-desc { fill:#333; font-size:10px; }
.t-pwr { fill:#C62828; font-size:11px; font-weight:bold; }
.t-gnd { fill:#555; font-size:11px; font-weight:bold; }
.l-pwr { stroke:#C62828; stroke-width:1.5; }
.l-gnd { stroke:#555; stroke-width:1.5; }
</style>
<text x="600" y="35" class="ic-title" font-size="20" fill="#1A237E">Serial Communication Experiment - Proteus Simulation</text>
<text x="600" y="55" class="ic-title" font-size="11">Dual AT89C52 UART Mode 1 | 9600 bps | 11.0592MHz TH1=0xFD</text>
<text x="600" y="72" class="ic-title" font-size="11">Net Label: same label on different components = connected | K1->LED1  K2->OFF  K3->COUNT</text>
<text x="30" y="95" class="t-desc" font-weight="bold">Net Label Legend:</text>
<text x="30" y="112" class="nl-u">UART_TX</text>
<text x="120" y="112" class="t-desc">= A.TXD connected to B.RXD</text>
<text x="30" y="127" class="nl-u">UART_RX</text>
<text x="120" y="127" class="t-desc">= A.RXD connected to B.TXD</text>
<text x="300" y="112" class="nl-btn">INT0_A</text>
<text x="390" y="112" class="t-desc">= A.P3.2 connected to K1</text>
<text x="300" y="127" class="nl-btn">INT0_B</text>
<text x="390" y="127" class="t-desc">= B.P3.2 connected to K3</text>
<rect x="50" y="150" width="150" height="360" rx="4" class="ic-body"/>
<text x="125.0" y="324.0" class="ic-title">U1</text>
<text x="125.0" y="338.0" class="ic-title">AT89C52</text>
<text x="125.0" y="352.0" class="ic-title">Master A</text>
<line x1="50" y1="170.0" x2="62" y2="170.0" class="ic-pin"/>
<text x="58" y="169.0" fill="#666" font-size="7px" text-anchor="end">1</text>
<text x="66" y="174.0" class="ic-pin-txt">P1.0</text>
<line x1="50" y1="210.0" x2="62" y2="210.0" class="ic-pin"/>
<text x="58" y="209.0" fill="#666" font-size="7px" text-anchor="end">2</text>
<text x="66" y="214.0" class="ic-pin-txt">P1.1</text>
<line x1="50" y1="250.0" x2="62" y2="250.0" class="ic-pin"/>
<text x="58" y="249.0" fill="#666" font-size="7px" text-anchor="end">9</text>
<text x="66" y="254.0" class="ic-pin-txt">RST</text>
<line x1="50" y1="290.0" x2="62" y2="290.0" class="ic-pin"/>
<text x="58" y="289.0" fill="#666" font-size="7px" text-anchor="end">10</text>
<text x="66" y="294.0" class="ic-pin-txt">P3.0/RXD</text>
<line x1="50" y1="330.0" x2="62" y2="330.0" class="ic-pin"/>
<text x="58" y="329.0" fill="#666" font-size="7px" text-anchor="end">11</text>
<text x="66" y="334.0" class="ic-pin-txt">P3.1/TXD</text>
<line x1="50" y1="370.0" x2="62" y2="370.0" class="ic-pin"/>
<text x="58" y="369.0" fill="#666" font-size="7px" text-anchor="end">12</text>
<text x="66" y="374.0" class="ic-pin-txt">P3.2/INT0</text>
<line x1="50" y1="410.0" x2="62" y2="410.0" class="ic-pin"/>
<text x="58" y="409.0" fill="#666" font-size="7px" text-anchor="end">13</text>
<text x="66" y="414.0" class="ic-pin-txt">P3.3/INT1</text>
<line x1="50" y1="450.0" x2="62" y2="450.0" class="ic-pin"/>
<text x="58" y="449.0" fill="#666" font-size="7px" text-anchor="end">18</text>
<text x="66" y="454.0" class="ic-pin-txt">XTAL2</text>
<line x1="50" y1="490.0" x2="62" y2="490.0" class="ic-pin"/>
<text x="58" y="489.0" fill="#666" font-size="7px" text-anchor="end">19</text>
<text x="66" y="494.0" class="ic-pin-txt">XTAL1</text>
<line x1="200" y1="195.0" x2="188" y2="195.0" class="ic-pin"/>
<text x="192" y="194.0" fill="#666" font-size="7px" text-anchor="start">20</text>
<text x="184" y="199.0" class="ic-pin-txt" text-anchor="end">GND</text>
<line x1="200" y1="285.0" x2="188" y2="285.0" class="ic-pin"/>
<text x="192" y="284.0" fill="#666" font-size="7px" text-anchor="start">31</text>
<text x="184" y="289.0" class="ic-pin-txt" text-anchor="end">EA</text>
<line x1="200" y1="375.0" x2="188" y2="375.0" class="ic-pin"/>
<text x="192" y="374.0" fill="#666" font-size="7px" text-anchor="start">32-39</text>
<text x="184" y="379.0" class="ic-pin-txt" text-anchor="end">P0.0~P0.7</text>
<line x1="200" y1="465.0" x2="188" y2="465.0" class="ic-pin"/>
<text x="192" y="464.0" fill="#666" font-size="7px" text-anchor="start">40</text>
<text x="184" y="469.0" class="ic-pin-txt" text-anchor="end">VCC</text>
<rect x="750" y="150" width="150" height="300" rx="4" class="ic-body"/>
<text x="825.0" y="294.0" class="ic-title">U2</text>
<text x="825.0" y="308.0" class="ic-title">AT89C52</text>
<text x="825.0" y="322.0" class="ic-title">Slave B</text>
<line x1="750" y1="175.0" x2="762" y2="175.0" class="ic-pin"/>
<text x="758" y="174.0" fill="#666" font-size="7px" text-anchor="end">9</text>
<text x="766" y="179.0" class="ic-pin-txt">RST</text>
<line x1="750" y1="225.0" x2="762" y2="225.0" class="ic-pin"/>
<text x="758" y="224.0" fill="#666" font-size="7px" text-anchor="end">10</text>
<text x="766" y="229.0" class="ic-pin-txt">P3.0/RXD</text>
<line x1="750" y1="275.0" x2="762" y2="275.0" class="ic-pin"/>
<text x="758" y="274.0" fill="#666" font-size="7px" text-anchor="end">11</text>
<text x="766" y="279.0" class="ic-pin-txt">P3.1/TXD</text>
<line x1="750" y1="325.0" x2="762" y2="325.0" class="ic-pin"/>
<text x="758" y="324.0" fill="#666" font-size="7px" text-anchor="end">12</text>
<text x="766" y="329.0" class="ic-pin-txt">P3.2/INT0</text>
<line x1="750" y1="375.0" x2="762" y2="375.0" class="ic-pin"/>
<text x="758" y="374.0" fill="#666" font-size="7px" text-anchor="end">18</text>
<text x="766" y="379.0" class="ic-pin-txt">XTAL2</text>
<line x1="750" y1="425.0" x2="762" y2="425.0" class="ic-pin"/>
<text x="758" y="424.0" fill="#666" font-size="7px" text-anchor="end">19</text>
<text x="766" y="429.0" class="ic-pin-txt">XTAL1</text>
<line x1="900" y1="180.0" x2="888" y2="180.0" class="ic-pin"/>
<text x="892" y="179.0" fill="#666" font-size="7px" text-anchor="start">20</text>
<text x="884" y="184.0" class="ic-pin-txt" text-anchor="end">GND</text>
<line x1="900" y1="240.0" x2="888" y2="240.0" class="ic-pin"/>
<text x="892" y="239.0" fill="#666" font-size="7px" text-anchor="start">27</text>
<text x="884" y="244.0" class="ic-pin-txt" text-anchor="end">P2.6</text>
<line x1="900" y1="300.0" x2="888" y2="300.0" class="ic-pin"/>
<text x="892" y="299.0" fill="#666" font-size="7px" text-anchor="start">28</text>
<text x="884" y="304.0" class="ic-pin-txt" text-anchor="end">P2.7</text>
<line x1="900" y1="360.0" x2="888" y2="360.0" class="ic-pin"/>
<text x="892" y="359.0" fill="#666" font-size="7px" text-anchor="start">31</text>
<text x="884" y="364.0" class="ic-pin-txt" text-anchor="end">EA</text>
<line x1="900" y1="420.0" x2="888" y2="420.0" class="ic-pin"/>
<text x="892" y="419.0" fill="#666" font-size="7px" text-anchor="start">40</text>
<text x="884" y="424.0" class="ic-pin-txt" text-anchor="end">VCC</text>
<rect x="340" y="190" width="280" height="80" rx="6" fill="#E8EAF6" stroke="#1565C0" stroke-width="1" stroke-dasharray="4,3"/>
<text x="480" y="208" class="ic-pin-txt" text-anchor="middle" font-size="11" font-weight="bold">UART Cross Connection</text>
<text x="480" y="229" class="nl-u">UART_TX</text>
<text x="480" y="240" class="t-desc" text-anchor="middle" font-size="10">A.TXD(P3.1) --- B.RXD(P3.0)</text>
<text x="480" y="259" class="nl-u">UART_RX</text>
<text x="480" y="270" class="t-desc" text-anchor="middle" font-size="10">A.RXD(P3.0) --- B.TXD(P3.1)</text>
<rect x="35" y="542" width="16" height="16" rx="2" class="cmp"/>
<text x="43" y="572" class="t-desc" text-anchor="middle" font-size="9">K1 (INT0)</text>
<text x="43" y="540" class="nl-btn">INT0_A</text>
<line x1="43" y1="558" x2="43" y2="578" class="cmp"/>
<line x1="35" y1="578" x2="51" y2="578" class="l-gnd"/>
<rect x="125" y="542" width="16" height="16" rx="2" class="cmp"/>
<text x="133" y="572" class="t-desc" text-anchor="middle" font-size="9">K2 (INT1)</text>
<text x="133" y="540" class="nl-btn">INT1_A</text>
<line x1="133" y1="558" x2="133" y2="578" class="cmp"/>
<line x1="125" y1="578" x2="141" y2="578" class="l-gnd"/>
<rect x="1065" y="542" width="16" height="16" rx="2" class="cmp"/>
<text x="1073" y="572" class="t-desc" text-anchor="middle" font-size="9">K3 (INT0)</text>
<text x="1073" y="540" class="nl-btn">INT0_B</text>
<line x1="1073" y1="558" x2="1073" y2="578" class="cmp"/>
<line x1="1065" y1="578" x2="1081" y2="578" class="l-gnd"/>
<polygon points="1040,320 1040,340 1060,330" class="cmp" fill="#FFCDD2"/>
<line x1="1060" y1="318" x2="1060" y2="342" class="cmp"/>
<line x1="1055" y1="324" x2="1055" y2="327" stroke="#C62828" stroke-width="1.5"/>
<line x1="1057" y1="322" x2="1057" y2="325" stroke="#C62828" stroke-width="1.5"/>
<text x="1050" y="354" class="t-desc" text-anchor="middle" font-size="9">LED1 (P2.6)</text>
<text x="1050" y="318" class="nl-led">LED1_CTRL</text>
<line x1="1060" y1="330" x2="1066" y2="330" class="cmp"/>
<polyline points="1066,330 1071,324 1078,336 1085,324 1092,336 1096,330" class="cmp"/>
<text x="1081" y="346" class="t-desc" text-anchor="middle" font-size="8">220R</text>
<line x1="1096" y1="330" x2="1096" y2="300" class="l-pwr"/>
<text x="1096" y="296" class="t-pwr" text-anchor="middle" font-size="8">+5V</text>
<polygon points="1040,430 1040,450 1060,440" class="cmp" fill="#FFCDD2"/>
<line x1="1060" y1="428" x2="1060" y2="452" class="cmp"/>
<line x1="1055" y1="434" x2="1055" y2="437" stroke="#C62828" stroke-width="1.5"/>
<line x1="1057" y1="432" x2="1057" y2="435" stroke="#C62828" stroke-width="1.5"/>
<text x="1050" y="464" class="t-desc" text-anchor="middle" font-size="9">LED2 (P2.7)</text>
<text x="1050" y="428" class="nl-led">LED2_CTRL</text>
<line x1="1060" y1="440" x2="1066" y2="440" class="cmp"/>
<polyline points="1066,440 1071,434 1078,446 1085,434 1092,446 1096,440" class="cmp"/>
<text x="1081" y="456" class="t-desc" text-anchor="middle" font-size="8">220R</text>
<line x1="1096" y1="440" x2="1096" y2="410" class="l-pwr"/>
<text x="1096" y="406" class="t-pwr" text-anchor="middle" font-size="8">+5V</text>
<rect x="410" y="370" width="40" height="60" rx="3" fill="#1A1A2E" stroke="#6A1B9A" stroke-width="1.5"/>
<text x="430" y="406" text-anchor="middle" fill="#FF8F00" font-size="32" font-weight="bold">8</text>
<text x="430" y="424" text-anchor="middle" class="t-desc" font-size="8" fill="#6A1B9A">DIG1 (Tens)
P1.0</text>
<rect x="470" y="370" width="40" height="60" rx="3" fill="#1A1A2E" stroke="#6A1B9A" stroke-width="1.5"/>
<text x="490" y="406" text-anchor="middle" fill="#FF8F00" font-size="32" font-weight="bold">8</text>
<text x="490" y="424" text-anchor="middle" class="t-desc" font-size="8" fill="#6A1B9A">DIG2 (Ones)
P1.1</text>
<text x="320" y="169" class="nl-seg">SEG_BUS</text>
<text x="330" y="169" class="t-desc" font-size="8">P0.0-P0.7 (a,b,c,d,e,f,g,dp)</text>
<text x="385" y="494" class="nl-seg">DIG1</text>
<text x="445" y="494" class="nl-seg">DIG2</text>
<text x="450" y="380" class="t-desc" text-anchor="middle" font-size="10">7SEG-MPX2-CA (Common Anode)</text>
<rect x="105" y="682" width="40" height="16" rx="2" fill="#00838F" stroke="#004D40" stroke-width="1.5"/>
<text x="125" y="694" text-anchor="middle" fill="white" font-size="8" font-weight="bold">11.0592</text>
<line x1="105" y1="690" x2="97" y2="690" class="ic-pin"/>
<line x1="145" y1="690" x2="153" y2="690" class="ic-pin"/>
<line x1="101" y1="690" x2="101" y2="706" style="stroke:#00838F;stroke-width:1.5"/>
<line x1="97" y1="706" x2="105" y2="706" style="stroke:#00838F;stroke-width:1.5"/>
<line x1="97" y1="711" x2="105" y2="711" style="stroke:#00838F;stroke-width:1.5"/>
<line x1="101" y1="711" x2="101" y2="720" style="stroke:#00838F;stroke-width:1.5"/>
<text x="101" y="730" text-anchor="middle" class="nl-xtal" font-size="8">30pF</text>
<line x1="101" y1="720" x2="101" y2="726" class="l-gnd"/>
<line x1="149" y1="690" x2="149" y2="706" style="stroke:#00838F;stroke-width:1.5"/>
<line x1="145" y1="706" x2="153" y2="706" style="stroke:#00838F;stroke-width:1.5"/>
<line x1="145" y1="711" x2="153" y2="711" style="stroke:#00838F;stroke-width:1.5"/>
<line x1="149" y1="711" x2="149" y2="720" style="stroke:#00838F;stroke-width:1.5"/>
<text x="149" y="730" text-anchor="middle" class="nl-xtal" font-size="8">30pF</text>
<line x1="149" y1="720" x2="149" y2="726" class="l-gnd"/>
<text x="125" y="676" class="nl-xtal">XTAL_A</text>
<text x="125" y="655" class="t-desc" text-anchor="middle" font-size="9">Y1 (U1 Crystal)</text>
<rect x="810" y="682" width="40" height="16" rx="2" fill="#00838F" stroke="#004D40" stroke-width="1.5"/>
<text x="830" y="694" text-anchor="middle" fill="white" font-size="8" font-weight="bold">11.0592</text>
<line x1="810" y1="690" x2="802" y2="690" class="ic-pin"/>
<line x1="850" y1="690" x2="858" y2="690" class="ic-pin"/>
<line x1="806" y1="690" x2="806" y2="706" style="stroke:#00838F;stroke-width:1.5"/>
<line x1="802" y1="706" x2="810" y2="706" style="stroke:#00838F;stroke-width:1.5"/>
<line x1="802" y1="711" x2="810" y2="711" style="stroke:#00838F;stroke-width:1.5"/>
<line x1="806" y1="711" x2="806" y2="720" style="stroke:#00838F;stroke-width:1.5"/>
<text x="806" y="730" text-anchor="middle" class="nl-xtal" font-size="8">30pF</text>
<line x1="806" y1="720" x2="806" y2="726" class="l-gnd"/>
<line x1="854" y1="690" x2="854" y2="706" style="stroke:#00838F;stroke-width:1.5"/>
<line x1="850" y1="706" x2="858" y2="706" style="stroke:#00838F;stroke-width:1.5"/>
<line x1="850" y1="711" x2="858" y2="711" style="stroke:#00838F;stroke-width:1.5"/>
<line x1="854" y1="711" x2="854" y2="720" style="stroke:#00838F;stroke-width:1.5"/>
<text x="854" y="730" text-anchor="middle" class="nl-xtal" font-size="8">30pF</text>
<line x1="854" y1="720" x2="854" y2="726" class="l-gnd"/>
<text x="830" y="676" class="nl-xtal">XTAL_B</text>
<text x="830" y="655" class="t-desc" text-anchor="middle" font-size="9">Y2 (U2 Crystal)</text>
<text x="300" y="560" class="netlabel">RST</text>
<line x1="300" y1="560" x2="300" y2="570" class="cmp"/>
<line x1="294" y1="570" x2="306" y2="570" class="cmp"/>
<line x1="294" y1="576" x2="306" y2="576" class="cmp"/>
<line x1="300" y1="576" x2="300" y2="586" class="cmp"/>
<text x="310" y="574" class="t-desc" font-size="7">10uF</text>
<line x1="300" y1="586" x2="300" y2="596" class="l-pwr"/>
<text x="310" y="593" class="t-pwr" font-size="7">+5V</text>
<line x1="300" y1="560" x2="320" y2="560" class="cmp"/>
<polyline points="320,560 327,555 334,565 341,555 348,565 352,560" class="cmp"/>
<text x="336" y="574" class="t-desc" font-size="7">10k</text>
<line x1="352" y1="560" x2="358" y2="560" class="cmp"/>
<line x1="355" y1="560" x2="355" y2="568" class="l-gnd"/>
<text x="300" y="544" class="netlabel">RST_A</text>
<text x="300" y="618" class="t-desc" text-anchor="middle" font-size="9">Reset Circuit A</text>
<text x="950" y="560" class="netlabel">RST</text>
<line x1="950" y1="560" x2="950" y2="570" class="cmp"/>
<line x1="944" y1="570" x2="956" y2="570" class="cmp"/>
<line x1="944" y1="576" x2="956" y2="576" class="cmp"/>
<line x1="950" y1="576" x2="950" y2="586" class="cmp"/>
<text x="960" y="574" class="t-desc" font-size="7">10uF</text>
<line x1="950" y1="586" x2="950" y2="596" class="l-pwr"/>
<text x="960" y="593" class="t-pwr" font-size="7">+5V</text>
<line x1="950" y1="560" x2="970" y2="560" class="cmp"/>
<polyline points="970,560 977,555 984,565 991,555 998,565 1002,560" class="cmp"/>
<text x="986" y="574" class="t-desc" font-size="7">10k</text>
<line x1="1002" y1="560" x2="1008" y2="560" class="cmp"/>
<line x1="1005" y1="560" x2="1005" y2="568" class="l-gnd"/>
<text x="950" y="544" class="netlabel">RST_B</text>
<text x="950" y="618" class="t-desc" text-anchor="middle" font-size="9">Reset Circuit B</text>
<text x="215" y="166" class="netlabel">VCC</text>
<text x="215" y="512" class="netlabel">VCC</text>
<text x="215" y="152" class="netlabel">GND</text>
<text x="905" y="166" class="netlabel">VCC</text>
<text x="905" y="152" class="netlabel">GND</text>
<text x="215" y="488" class="netlabel">EA->VCC</text>
<text x="905" y="444" class="netlabel">EA->VCC</text>
<text x="30" y="800" class="t-desc" font-weight="bold" font-size="12">Experiment Operation:</text>
<text x="30" y="815" class="t-desc">1. Press K1 (INT0_A) -> Master A sends command via UART_TX -> Slave B receives on UART_RX -> LED1 ON</text>
<text x="30" y="830" class="t-desc">2. Press K2 (INT1_A) -> Master A sends different command -> Slave B -> Both LEDs OFF</text>
<text x="30" y="845" class="t-desc">3. Press K3 (INT0_B) -> Slave B sends count back -> Master A -> 7SEG display increments</text>
<text x="30" y="860" class="t-desc">4. (Optional) VT2 sends "11","10","21","20" via UART_RX to control Slave B LEDs</text>
<text x="30" y="875" class="t-desc">5. VT1 monitors UART_TX data from Master A to Slave B</text>
</svg>