<?xml version="1.0" encoding="UTF-8"?>
<svg xmlns="http://www.w3.org/2000/svg" viewBox="0 0 1000 700" font-family="Microsoft YaHei, sans-serif">
<rect width="1000" height="700" fill="#E0E0D0"/>
<style>
.icb { fill:#FAFAFA; stroke:#000; stroke-width:1.2; rx:2; }
.w { fill:none; stroke:#000; stroke-width:0.8; }
.wb { fill:none; stroke:#000; stroke-width:1.2; }
.ti { fill:#000; font-size:9px; font-weight:bold; }
.tp { fill:#000; font-size:7px; }
.tn { fill:#666; font-size:6px; }
.tc { fill:#333; font-size:8px; }
.nl { fill:#1565C0; font-size:7px; font-weight:bold; }
.nl-seg { fill:#6A1B9A; font-size:7px; font-weight:bold; }
.nu { fill:#0D47A1; font-size:8px; font-weight:bold; }
.nk { fill:#8B4513; font-size:7px; font-weight:bold; }
.nl2 { fill:#C62828; font-size:7px; font-weight:bold; }
.pw { fill:#C00; font-size:8px; }
.gn { fill:#000; font-size:8px; }
.led { stroke:#000; stroke-width:0.8; fill:#FFCDD2; }
</style>
<text x="500" y="21" class="ti">串行通信实验</text>
<text x="500" y="33" class="tc">双AT89C52 — UART串行通信 — 9600bps — 11.0592MHz — TH1=0xFD</text>
<rect x="40" y="50" width="80" height="200" fill="#FAFAFA" stroke="#000" stroke_width="1.2" rx="2"/>
<text x="44" y="63" class="ti">U1</text>
<text x="44" y="75" class="ti">AT89C52</text>
<text x="44" y="87" class="ti">Master A</text>
<line x1="32" y1="73" x2="40" y2="73" class="w"/>
<text x="28" y="72" class="tn">1</text>
<text x="44" y="73" class="tp">P1.0</text>
<line x1="32" y1="90" x2="40" y2="90" class="w"/>
<text x="28" y="89" class="tn">2</text>
<text x="44" y="90" class="tp">P1.1</text>
<line x1="32" y1="113" x2="40" y2="113" class="w"/>
<text x="28" y="112" class="tn">9</text>
<text x="44" y="113" class="tp">RST</text>
<line x1="32" y1="130" x2="40" y2="130" class="w"/>
<text x="28" y="129" class="tn">10</text>
<text x="44" y="130" class="tp">P3.0/RXD</text>
<line x1="32" y1="147" x2="40" y2="147" class="w"/>
<text x="28" y="146" class="tn">11</text>
<text x="44" y="147" class="tp">P3.1/TXD</text>
<line x1="32" y1="164" x2="40" y2="164" class="w"/>
<text x="28" y="163" class="tn">12</text>
<text x="44" y="164" class="tp">P3.2/INT0</text>
<line x1="32" y1="181" x2="40" y2="181" class="w"/>
<text x="28" y="180" class="tn">13</text>
<text x="44" y="181" class="tp">P3.3/INT1</text>
<line x1="32" y1="204" x2="40" y2="204" class="w"/>
<text x="28" y="203" class="tn">18</text>
<text x="44" y="204" class="tp">XTAL2</text>
<line x1="32" y1="221" x2="40" y2="221" class="w"/>
<text x="28" y="220" class="tn">19</text>
<text x="44" y="221" class="tp">XTAL1</text>
<line x1="120" y1="66" x2="128" y2="66" class="w"/>
<text x="132" y="65" class="tn">20</text>
<text x="132" y="74" class="tp">GND</text>
<line x1="120" y1="82" x2="128" y2="82" class="w"/>
<text x="132" y="81" class="tn">31</text>
<text x="132" y="90" class="tp">EA</text>
<line x1="120" y1="100" x2="128" y2="100" class="w"/>
<text x="132" y="99" class="tn">32</text>
<text x="132" y="108" class="tp">P0.0</text>
<line x1="120" y1="114" x2="128" y2="114" class="w"/>
<text x="132" y="113" class="tn">33</text>
<text x="132" y="122" class="tp">P0.1</text>
<line x1="120" y1="128" x2="128" y2="128" class="w"/>
<text x="132" y="127" class="tn">34</text>
<text x="132" y="136" class="tp">P0.2</text>
<line x1="120" y1="142" x2="128" y2="142" class="w"/>
<text x="132" y="141" class="tn">35</text>
<text x="132" y="150" class="tp">P0.3</text>
<line x1="120" y1="156" x2="128" y2="156" class="w"/>
<text x="132" y="155" class="tn">36</text>
<text x="132" y="164" class="tp">P0.4</text>
<line x1="120" y1="170" x2="128" y2="170" class="w"/>
<text x="132" y="169" class="tn">37</text>
<text x="132" y="178" class="tp">P0.5</text>
<line x1="120" y1="184" x2="128" y2="184" class="w"/>
<text x="132" y="183" class="tn">38</text>
<text x="132" y="192" class="tp">P0.6</text>
<line x1="120" y1="198" x2="128" y2="198" class="w"/>
<text x="132" y="197" class="tn">39</text>
<text x="132" y="206" class="tp">P0.7</text>
<line x1="120" y1="218" x2="128" y2="218" class="w"/>
<text x="132" y="217" class="tn">40</text>
<text x="132" y="226" class="tp">VCC</text>
<rect x="700" y="55" width="80" height="180" fill="#FAFAFA" stroke="#000" stroke_width="1.2" rx="2"/>
<text x="704" y="68" class="ti">U2</text>
<text x="704" y="80" class="ti">AT89C52</text>
<text x="704" y="92" class="ti">Slave B</text>
<line x1="692" y1="75" x2="700" y2="75" class="w"/>
<text x="688" y="74" class="tn">9</text>
<text x="704" y="75" class="tp">RST</text>
<line x1="692" y1="100" x2="700" y2="100" class="w"/>
<text x="688" y="99" class="tn">10</text>
<text x="704" y="100" class="tp">P3.0/RXD</text>
<line x1="692" y1="120" x2="700" y2="120" class="w"/>
<text x="688" y="119" class="tn">11</text>
<text x="704" y="120" class="tp">P3.1/TXD</text>
<line x1="692" y1="140" x2="700" y2="140" class="w"/>
<text x="688" y="139" class="tn">12</text>
<text x="704" y="140" class="tp">P3.2/INT0</text>
<line x1="692" y1="168" x2="700" y2="168" class="w"/>
<text x="688" y="167" class="tn">18</text>
<text x="704" y="168" class="tp">XTAL2</text>
<line x1="692" y1="190" x2="700" y2="190" class="w"/>
<text x="688" y="189" class="tn">19</text>
<text x="704" y="190" class="tp">XTAL1</text>
<line x1="780" y1="70" x2="788" y2="70" class="w"/>
<text x="792" y="69" class="tn">20</text>
<text x="792" y="78" class="tp">GND</text>
<line x1="780" y1="95" x2="788" y2="95" class="w"/>
<text x="792" y="94" class="tn">27</text>
<text x="792" y="103" class="tp">P2.6</text>
<line x1="780" y1="115" x2="788" y2="115" class="w"/>
<text x="792" y="114" class="tn">28</text>
<text x="792" y="123" class="tp">P2.7</text>
<line x1="780" y1="140" x2="788" y2="140" class="w"/>
<text x="792" y="139" class="tn">31</text>
<text x="792" y="148" class="tp">EA</text>
<line x1="780" y1="165" x2="788" y2="165" class="w"/>
<text x="792" y="164" class="tn">40</text>
<text x="792" y="173" class="tp">VCC</text>
<rect x="280" y="270" width="260" height="55" fill="#F5F5F5" stroke="#1565C0" stroke_dasharray="4,3" stroke_width="0.8"/>
<text x="410" y="283" class="nu">UART — 模式 1 — 9600bps</text>
<text x="410" y="295" class="tc">SM0=0 SM1=1 REN=1  TH1=0xFD</text>
<text x="410" y="307" class="nu">TXD_A  ───  RXD_B    |    RXD_A  ───  TXD_B</text>
<text x="410" y="319" class="tc">(网络标号 UART_TX)         (网络标号 UART_RX)</text>
<polyline points="40,147 250,147" class="w"/>
<text x="160" y="147" class="nu">UART_TX</text>
<polyline points="40,130 290,130" class="w"/>
<text x="200" y="130" class="nu">UART_RX</text>
<polyline points="700,100 510,100" class="w"/>
<text x="610" y="100" class="nu">UART_RX</text>
<polyline points="700,120 470,120" class="w"/>
<text x="570" y="120" class="nu">UART_TX</text>
<rect x="18" y="340" width="14" height="14" fill="white" stroke="#000" stroke_width="1"/>
<text x="15" y="336" class="tc">K1</text>
<polyline points="25,354 25,364" class="w"/>
<line x1="18" y1="364" x2="32" y2="364" class="w"/>
<text x="18" y="371" class="gn">GND</text>
<polyline points="25,340 25,164 32,164" class="w"/>
<text x="25" y="158" class="nk">INT0_A</text>
<rect x="18" y="400" width="14" height="14" fill="white" stroke="#000" stroke_width="1"/>
<text x="15" y="396" class="tc">K2</text>
<polyline points="25,414 25,424" class="w"/>
<line x1="18" y1="424" x2="32" y2="424" class="w"/>
<text x="18" y="431" class="gn">GND</text>
<polyline points="25,400 25,181 32,181" class="w"/>
<text x="25" y="175" class="nk">INT1_A</text>
<rect x="890" y="340" width="14" height="14" fill="white" stroke="#000" stroke_width="1"/>
<text x="887" y="336" class="tc">K3</text>
<polyline points="897,354 897,364" class="w"/>
<line x1="890" y1="364" x2="904" y2="364" class="w"/>
<text x="890" y="371" class="gn">GND</text>
<polyline points="897,340 897,140 700,140" class="w"/>
<text x="780" y="151" class="nk">INT0_B</text>
<line x1="18" y1="364" x2="897" y2="364" class="w"/>
<rect x="840" y="185" width="14" height="12" fill="#FFCDD2" stroke="#000" stroke_width="0.8"/>
<polyline points="854,185 858,191 854,197" class="w"/>
<text x="847" y="184" class="tc">LED1</text>
<polyline points="788,95 810,95 810,191 840,191" class="w"/>
<text x="810" y="91" class="nl2">LED1_CTRL</text>
<polyline points="858,191 864,191" class="w"/>
<polyline points="864,191 869,186 874,196 879,186 884,191" class="w"/>
<text x="870" y="204" class="tc">220R</text>
<polyline points="884,191 892,191" class="w"/>
<text x="892" y="190" class="pw">+5V</text>
<rect x="840" y="250" width="14" height="12" fill="#FFCDD2" stroke="#000" stroke_width="0.8"/>
<polyline points="854,250 858,256 854,262" class="w"/>
<text x="847" y="249" class="tc">LED2</text>
<polyline points="788,115 810,115 810,256 840,256" class="w"/>
<text x="810" y="111" class="nl2">LED2_CTRL</text>
<polyline points="858,256 864,256" class="w"/>
<polyline points="864,256 869,251 874,261 879,251 884,256" class="w"/>
<text x="870" y="269" class="tc">220R</text>
<polyline points="884,256 892,256" class="w"/>
<text x="892" y="255" class="pw">+5V</text>
<polyline points="320,370 332,370" class="w"/>
<polyline points="332,370 337,366 342,376 347,366 352,370" class="w"/>
<polyline points="320,382 332,382" class="w"/>
<polyline points="332,382 337,378 342,388 347,378 352,382" class="w"/>
<polyline points="320,394 332,394" class="w"/>
<polyline points="332,394 337,390 342,400 347,390 352,394" class="w"/>
<polyline points="320,406 332,406" class="w"/>
<polyline points="332,406 337,402 342,412 347,402 352,406" class="w"/>
<polyline points="320,418 332,418" class="w"/>
<polyline points="332,418 337,414 342,424 347,414 352,418" class="w"/>
<polyline points="320,430 332,430" class="w"/>
<polyline points="332,430 337,426 342,436 347,426 352,430" class="w"/>
<polyline points="320,442 332,442" class="w"/>
<polyline points="332,442 337,438 342,448 347,438 352,442" class="w"/>
<polyline points="320,454 332,454" class="w"/>
<polyline points="332,454 337,450 342,460 347,450 352,454" class="w"/>
<text x="335" y="369" class="tc">470R x8</text>
<text x="335" y="465" class="tc">R15-R22</text>
<polyline points="128,100 320,370" class="w"/>
<polyline points="128,114 320,382" class="w"/>
<polyline points="128,128 320,394" class="w"/>
<polyline points="128,142 320,406" class="w"/>
<polyline points="128,156 320,418" class="w"/>
<polyline points="128,170 320,430" class="w"/>
<polyline points="128,184 320,442" class="w"/>
<polyline points="128,198 320,454" class="w"/>
<text x="280" y="375" class="nl-seg">SEG_A</text>
<text x="280" y="387" class="nl-seg">SEG_B</text>
<text x="280" y="399" class="nl-seg">SEG_C</text>
<text x="280" y="411" class="nl-seg">SEG_D</text>
<text x="280" y="423" class="nl-seg">SEG_E</text>
<text x="280" y="435" class="nl-seg">SEG_F</text>
<text x="280" y="447" class="nl-seg">SEG_G</text>
<text x="280" y="459" class="nl-seg">SEG_DP</text>
<rect x="440" y="365" width="110" height="90" rx="3" fill="#1A1A2E" stroke="#6A1B9A" stroke_width="1.5"/>
<text x="495" y="403" class="tc">8 8</text>
<text x="495" y="438" class="tp">7SEG-MPX2-CA</text>
<text x="475" y="453" class="nl-seg">DIG1(Tens)</text>
<text x="515" y="453" class="nl-seg">DIG2(Ones)</text>
<polyline points="352,370 440,372" class="w"/>
<polyline points="352,382 440,378" class="w"/>
<polyline points="352,394 440,384" class="w"/>
<polyline points="352,406 440,390" class="w"/>
<polyline points="352,418 440,396" class="w"/>
<polyline points="352,430 440,402" class="w"/>
<polyline points="352,442 440,408" class="w"/>
<polyline points="352,454 440,414" class="w"/>
<polyline points="40,73 40,475 475,475 475,450" class="w"/>
<text x="40" y="463" class="nl-seg">P1.0→DIG1</text>
<polyline points="40,90 55,90 55,485 515,485 515,450" class="w"/>
<text x="55" y="475" class="nl-seg">P1.1→DIG2</text>
<rect x="105" y="512" width="50" height="16" rx="2" fill="#E0F2F1" stroke="#00695C" stroke_width="1"/>
<text x="130" y="525" class="tc">11.0592MHz</text>
<line x1="105" y1="520" x2="95" y2="520" class="w"/>
<line x1="155" y1="520" x2="165" y2="520" class="w"/>
<polyline points="95,520 95,204 40,204" class="w"/>
<polyline points="165,520 165,221 40,221" class="w"/>
<text x="48" y="201" class="nl">XTAL2</text>
<text x="48" y="218" class="nl">XTAL1</text>
<polyline points="95,520 95,532" class="w"/>
<line x1="91" y1="534" x2="99" y2="534" class="w"/>
<line x1="91" y1="539" x2="99" y2="539" class="w"/>
<polyline points="95,539 95,548" class="w"/>
<text x="105" y="549" class="tp">30pF</text>
<polyline points="165,520 165,532" class="w"/>
<line x1="161" y1="534" x2="169" y2="534" class="w"/>
<line x1="161" y1="539" x2="169" y2="539" class="w"/>
<polyline points="165,539 165,548" class="w"/>
<text x="175" y="549" class="tp">30pF</text>
<line x1="95" y1="548" x2="165" y2="548" class="w"/>
<text x="175" y="549" class="gn">GND</text>
<rect x="755" y="512" width="50" height="16" rx="2" fill="#E0F2F1" stroke="#00695C" stroke_width="1"/>
<text x="780" y="525" class="tc">11.0592MHz</text>
<line x1="755" y1="520" x2="745" y2="520" class="w"/>
<line x1="805" y1="520" x2="815" y2="520" class="w"/>
<polyline points="745,520 745,168 700,168" class="w"/>
<polyline points="815,520 815,190 700,190" class="w"/>
<text x="700" y="165" class="nl">XTAL2</text>
<text x="700" y="187" class="nl">XTAL1</text>
<polyline points="745,520 745,532" class="w"/>
<line x1="741" y1="534" x2="749" y2="534" class="w"/>
<line x1="741" y1="539" x2="749" y2="539" class="w"/>
<polyline points="745,539 745,548" class="w"/>
<text x="755" y="549" class="tp">30pF</text>
<polyline points="815,520 815,532" class="w"/>
<line x1="811" y1="534" x2="819" y2="534" class="w"/>
<line x1="811" y1="539" x2="819" y2="539" class="w"/>
<polyline points="815,539 815,548" class="w"/>
<text x="825" y="549" class="tp">30pF</text>
<line x1="745" y1="548" x2="815" y2="548" class="w"/>
<text x="825" y="549" class="gn">GND</text>
<polyline points="130,620 130,630" class="w"/>
<line x1="124" y1="630" x2="136" y2="630" class="w"/>
<line x1="124" y1="636" x2="136" y2="636" class="w"/>
<polyline points="130,636 130,644" class="w"/>
<text x="142" y="637" class="tp">10uF</text>
<polyline points="130,644 130,652" class="w"/>
<text x="130" y="659" class="pw">+5V</text>
<polyline points="130,620 150,620" class="w"/>
<polyline points="150,620 156,615 162,625 168,615 174,620" class="w"/>
<text x="156" y="611" class="tp">10k</text>
<polyline points="174,620 180,620" class="w"/>
<text x="180" y="619" class="gn">GND</text>
<polyline points="130,620 130,113" class="w"/>
<text x="130" y="109" class="nl">RST_A</text>
<polyline points="780,620 780,630" class="w"/>
<line x1="774" y1="630" x2="786" y2="630" class="w"/>
<line x1="774" y1="636" x2="786" y2="636" class="w"/>
<polyline points="780,636 780,644" class="w"/>
<text x="792" y="637" class="tp">10uF</text>
<polyline points="780,644 780,652" class="w"/>
<text x="780" y="659" class="pw">+5V</text>
<polyline points="780,620 800,620" class="w"/>
<polyline points="800,620 806,615 812,625 818,615 824,620" class="w"/>
<text x="806" y="611" class="tp">10k</text>
<polyline points="824,620 830,620" class="w"/>
<text x="830" y="619" class="gn">GND</text>
<polyline points="780,620 780,75" class="w"/>
<text x="780" y="71" class="nl">RST_B</text>
<text x="500" y="49" class="pw">+5V (EA=VCC=VCC)   |   All GND common</text>
<polyline points="128,82 360,82" class="w"/>
<polyline points="788,140 420,140 420,46" class="w"/>
<polyline points="128,218 360,218" class="w"/>
<polyline points="788,165 460,165" class="w"/>
<polyline points="360,46 360,82" class="w"/>
<polyline points="360,46 360,218" class="w"/>
<polyline points="460,46 460,165" class="w"/>
<text x="20" y="663" class="tp">K1(INT0_A)→主A发0x11→从B→LED1亮     K2(INT1_A)→主A发0x22→LED1+LED2灭     K3(INT0_B)→从B发回计数→主A→7SEG显示</text>
</svg>