<?xml version="1.0" encoding="UTF-8"?>
<svg xmlns="http://www.w3.org/2000/svg" viewBox="0 0 1200 750" font-family="Microsoft YaHei, sans-serif" font-size="12">
<rect width="1200" height="750" fill="white"/>

<style>
.l-u { stroke: #1565C0; stroke-width: 2; fill: none; }
.l-btn { stroke: #8B4513; stroke-width: 2; fill: none; }
.l-led { stroke: #C62828; stroke-width: 2; fill: none; }
.l-pwr { stroke: #C62828; stroke-width: 2; fill: none; }
.l-gnd { stroke: #555; stroke-width: 1.5; fill: none; }
.l-seg { stroke: #6A1B9A; stroke-width: 1.5; fill: none; }
.l-xtal { stroke: #00838F; stroke-width: 1.5; fill: none; }
.txt-navy { fill: #1565C0; }
.txt-brown { fill: #8B4513; }
.txt-red { fill: #C62828; }
.txt-purple { fill: #6A1B9A; }
.txt-teal { fill: #00838F; }
.txt-gray { fill: #555; }
.txt-dark { fill: #1A237E; }
</style>

<rect x="80" y="150" width="140" height="280" rx="3" fill="#E3F2FD" stroke="#1565C0" stroke-width="2.5"/>
<text x="150.0" y="290.0" text-anchor="middle" dominant-baseline="middle" font-size="11" font-weight="bold" fill="#1565C0">U1 AT89C52
Master A</text>
<line x1="80" y1="178.0" x2="65" y2="178.0" stroke="#1565C0" stroke-width="1.5"/>
<text x="62" y="179.0" text-anchor="end" font-size="10" fill="#1565C0">P1.0</text>
<circle cx="65" cy="178.0" r="2" fill="#1565C0"/>
<line x1="80" y1="206.0" x2="65" y2="206.0" stroke="#1565C0" stroke-width="1.5"/>
<text x="62" y="207.0" text-anchor="end" font-size="10" fill="#1565C0">P1.1</text>
<circle cx="65" cy="206.0" r="2" fill="#1565C0"/>
<line x1="80" y1="234.0" x2="65" y2="234.0" stroke="#1565C0" stroke-width="1.5"/>
<text x="62" y="235.0" text-anchor="end" font-size="10" fill="#1565C0">RST</text>
<circle cx="65" cy="234.0" r="2" fill="#1565C0"/>
<line x1="80" y1="262.0" x2="65" y2="262.0" stroke="#1565C0" stroke-width="1.5"/>
<text x="62" y="263.0" text-anchor="end" font-size="10" fill="#1565C0">RXD</text>
<circle cx="65" cy="262.0" r="2" fill="#1565C0"/>
<line x1="80" y1="290.0" x2="65" y2="290.0" stroke="#1565C0" stroke-width="1.5"/>
<text x="62" y="291.0" text-anchor="end" font-size="10" fill="#1565C0">TXD</text>
<circle cx="65" cy="290.0" r="2" fill="#1565C0"/>
<line x1="80" y1="318.0" x2="65" y2="318.0" stroke="#1565C0" stroke-width="1.5"/>
<text x="62" y="319.0" text-anchor="end" font-size="10" fill="#1565C0">INT0</text>
<circle cx="65" cy="318.0" r="2" fill="#1565C0"/>
<line x1="80" y1="346.0" x2="65" y2="346.0" stroke="#1565C0" stroke-width="1.5"/>
<text x="62" y="347.0" text-anchor="end" font-size="10" fill="#1565C0">INT1</text>
<circle cx="65" cy="346.0" r="2" fill="#1565C0"/>
<line x1="80" y1="374.0" x2="65" y2="374.0" stroke="#1565C0" stroke-width="1.5"/>
<text x="62" y="375.0" text-anchor="end" font-size="10" fill="#1565C0">XTAL2</text>
<circle cx="65" cy="374.0" r="2" fill="#1565C0"/>
<line x1="80" y1="402.0" x2="65" y2="402.0" stroke="#1565C0" stroke-width="1.5"/>
<text x="62" y="403.0" text-anchor="end" font-size="10" fill="#1565C0">XTAL1</text>
<circle cx="65" cy="402.0" r="2" fill="#1565C0"/>
<line x1="220" y1="173.33333333333334" x2="235" y2="173.33333333333334" stroke="#1565C0" stroke-width="1.5"/>
<text x="238" y="174.33333333333334" text-anchor="start" font-size="10" fill="#1565C0">GND</text>
<circle cx="235" cy="173.33333333333334" r="2" fill="#1565C0"/>
<line x1="220" y1="196.66666666666666" x2="235" y2="196.66666666666666" stroke="#1565C0" stroke-width="1.5"/>
<text x="238" y="197.66666666666666" text-anchor="start" font-size="10" fill="#1565C0">EA</text>
<circle cx="235" cy="196.66666666666666" r="2" fill="#1565C0"/>
<line x1="220" y1="220.0" x2="235" y2="220.0" stroke="#1565C0" stroke-width="1.5"/>
<text x="238" y="221.0" text-anchor="start" font-size="10" fill="#1565C0">P0.0</text>
<circle cx="235" cy="220.0" r="2" fill="#1565C0"/>
<line x1="220" y1="243.33333333333331" x2="235" y2="243.33333333333331" stroke="#1565C0" stroke-width="1.5"/>
<text x="238" y="244.33333333333331" text-anchor="start" font-size="10" fill="#1565C0">P0.1</text>
<circle cx="235" cy="243.33333333333331" r="2" fill="#1565C0"/>
<line x1="220" y1="266.6666666666667" x2="235" y2="266.6666666666667" stroke="#1565C0" stroke-width="1.5"/>
<text x="238" y="267.6666666666667" text-anchor="start" font-size="10" fill="#1565C0">P0.2</text>
<circle cx="235" cy="266.6666666666667" r="2" fill="#1565C0"/>
<line x1="220" y1="290.0" x2="235" y2="290.0" stroke="#1565C0" stroke-width="1.5"/>
<text x="238" y="291.0" text-anchor="start" font-size="10" fill="#1565C0">P0.3</text>
<circle cx="235" cy="290.0" r="2" fill="#1565C0"/>
<line x1="220" y1="313.33333333333337" x2="235" y2="313.33333333333337" stroke="#1565C0" stroke-width="1.5"/>
<text x="238" y="314.33333333333337" text-anchor="start" font-size="10" fill="#1565C0">P0.4</text>
<circle cx="235" cy="313.33333333333337" r="2" fill="#1565C0"/>
<line x1="220" y1="336.66666666666663" x2="235" y2="336.66666666666663" stroke="#1565C0" stroke-width="1.5"/>
<text x="238" y="337.66666666666663" text-anchor="start" font-size="10" fill="#1565C0">P0.5</text>
<circle cx="235" cy="336.66666666666663" r="2" fill="#1565C0"/>
<line x1="220" y1="360.0" x2="235" y2="360.0" stroke="#1565C0" stroke-width="1.5"/>
<text x="238" y="361.0" text-anchor="start" font-size="10" fill="#1565C0">P0.6</text>
<circle cx="235" cy="360.0" r="2" fill="#1565C0"/>
<line x1="220" y1="383.33333333333337" x2="235" y2="383.33333333333337" stroke="#1565C0" stroke-width="1.5"/>
<text x="238" y="384.33333333333337" text-anchor="start" font-size="10" fill="#1565C0">P0.7</text>
<circle cx="235" cy="383.33333333333337" r="2" fill="#1565C0"/>
<line x1="220" y1="406.6666666666667" x2="235" y2="406.6666666666667" stroke="#1565C0" stroke-width="1.5"/>
<text x="238" y="407.6666666666667" text-anchor="start" font-size="10" fill="#1565C0">VCC</text>
<circle cx="235" cy="406.6666666666667" r="2" fill="#1565C0"/>
<rect x="520" y="150" width="140" height="280" rx="3" fill="#E3F2FD" stroke="#1565C0" stroke-width="2.5"/>
<text x="590.0" y="290.0" text-anchor="middle" dominant-baseline="middle" font-size="11" font-weight="bold" fill="#1565C0">U2 AT89C52
Slave B</text>
<line x1="520" y1="190.0" x2="505" y2="190.0" stroke="#1565C0" stroke-width="1.5"/>
<text x="502" y="191.0" text-anchor="end" font-size="10" fill="#1565C0">RST</text>
<circle cx="505" cy="190.0" r="2" fill="#1565C0"/>
<line x1="520" y1="230.0" x2="505" y2="230.0" stroke="#1565C0" stroke-width="1.5"/>
<text x="502" y="231.0" text-anchor="end" font-size="10" fill="#1565C0">RXD</text>
<circle cx="505" cy="230.0" r="2" fill="#1565C0"/>
<line x1="520" y1="270.0" x2="505" y2="270.0" stroke="#1565C0" stroke-width="1.5"/>
<text x="502" y="271.0" text-anchor="end" font-size="10" fill="#1565C0">TXD</text>
<circle cx="505" cy="270.0" r="2" fill="#1565C0"/>
<line x1="520" y1="310.0" x2="505" y2="310.0" stroke="#1565C0" stroke-width="1.5"/>
<text x="502" y="311.0" text-anchor="end" font-size="10" fill="#1565C0">INT0</text>
<circle cx="505" cy="310.0" r="2" fill="#1565C0"/>
<line x1="520" y1="350.0" x2="505" y2="350.0" stroke="#1565C0" stroke-width="1.5"/>
<text x="502" y="351.0" text-anchor="end" font-size="10" fill="#1565C0">XTAL2</text>
<circle cx="505" cy="350.0" r="2" fill="#1565C0"/>
<line x1="520" y1="390.0" x2="505" y2="390.0" stroke="#1565C0" stroke-width="1.5"/>
<text x="502" y="391.0" text-anchor="end" font-size="10" fill="#1565C0">XTAL1</text>
<circle cx="505" cy="390.0" r="2" fill="#1565C0"/>
<line x1="660" y1="196.66666666666666" x2="675" y2="196.66666666666666" stroke="#1565C0" stroke-width="1.5"/>
<text x="678" y="197.66666666666666" text-anchor="start" font-size="10" fill="#1565C0">GND</text>
<circle cx="675" cy="196.66666666666666" r="2" fill="#1565C0"/>
<line x1="660" y1="243.33333333333331" x2="675" y2="243.33333333333331" stroke="#1565C0" stroke-width="1.5"/>
<text x="678" y="244.33333333333331" text-anchor="start" font-size="10" fill="#1565C0">P2.6</text>
<circle cx="675" cy="243.33333333333331" r="2" fill="#1565C0"/>
<line x1="660" y1="290.0" x2="675" y2="290.0" stroke="#1565C0" stroke-width="1.5"/>
<text x="678" y="291.0" text-anchor="start" font-size="10" fill="#1565C0">P2.7</text>
<circle cx="675" cy="290.0" r="2" fill="#1565C0"/>
<line x1="660" y1="336.66666666666663" x2="675" y2="336.66666666666663" stroke="#1565C0" stroke-width="1.5"/>
<text x="678" y="337.66666666666663" text-anchor="start" font-size="10" fill="#1565C0">EA</text>
<circle cx="675" cy="336.66666666666663" r="2" fill="#1565C0"/>
<line x1="660" y1="383.33333333333337" x2="675" y2="383.33333333333337" stroke="#1565C0" stroke-width="1.5"/>
<text x="678" y="384.33333333333337" text-anchor="start" font-size="10" fill="#1565C0">VCC</text>
<circle cx="675" cy="383.33333333333337" r="2" fill="#1565C0"/>
<polyline class="l-u" points="65,290.0 300,290.0 300,230.0 505,230.0"/>
<polyline class="l-u" points="505,270.0 260,270.0 260,262.0 65,262.0"/>
<text x="320" y="285.0" class="txt-navy" font-size="11">A.TXD -> B.RXD</text>
<text x="260" y="288.0" class="txt-navy" font-size="11">A.RXD <- B.TXD</text>
<line class="l-btn" x1="65" y1="318.0" x2="20" y2="318.0"/>
<rect x="0" y="310.0" width="16" height="16" class="l-btn" rx="2"/>
<text x="-22" y="322.0" class="txt-brown" font-size="10" text-anchor="end">K1</text>
<line class="l-btn" x1="8" y1="326.0" x2="8" y2="470"/>
<circle cx="8" cy="470" r="3" fill="#8B4513"/>
<line class="l-btn" x1="65" y1="346.0" x2="20" y2="346.0"/>
<rect x="0" y="338.0" width="16" height="16" class="l-btn" rx="2"/>
<text x="-22" y="350.0" class="txt-brown" font-size="10" text-anchor="end">K2</text>
<line class="l-btn" x1="8" y1="354.0" x2="8" y2="470"/>
<circle cx="8" cy="470" r="3" fill="#8B4513"/>
<line class="l-btn" x1="505" y1="310.0" x2="830" y2="310.0"/>
<rect x="850" y="302.0" width="16" height="16" class="l-btn" rx="2"/>
<text x="870" y="314.0" class="txt-brown" font-size="10">K3</text>
<line class="l-btn" x1="858" y1="318.0" x2="858" y2="470"/>
<circle cx="858" cy="470" r="3" fill="#8B4513"/>
<line class="l-gnd" x1="40" y1="470" x2="900" y2="470"/>
<line x1="40" y1="470" x2="50" y2="464" class="l-gnd"/>
<line x1="40" y1="470" x2="50" y2="476" class="l-gnd"/>
<text x="450" y="490" class="txt-gray" text-anchor="middle" font-size="12">GND (common ground)</text>
<line class="l-gnd" x1="235" y1="173.33333333333334" x2="235" y2="470"/>
<line class="l-gnd" x1="675" y1="196.66666666666666" x2="675" y2="470"/>
<line class="l-pwr" x1="40" y1="80" x2="900" y2="80"/>
<text x="450" y="70" class="txt-red" text-anchor="middle" font-size="12" font-weight="bold">+5V VCC</text>
<line class="l-pwr" x1="235" y1="406.6666666666667" x2="235" y2="80"/>
<line class="l-pwr" x1="675" y1="383.33333333333337" x2="675" y2="80"/>
<line class="l-pwr" x1="235" y1="196.66666666666666" x2="235" y2="80"/>
<line class="l-pwr" x1="675" y1="336.66666666666663" x2="675" y2="80"/>
<line class="l-led" x1="675" y1="243.33333333333331" x2="760" y2="243.33333333333331"/>
<polygon points="765,233.33333333333331 765,253.33333333333331 785,243.33333333333331" class="l-led" fill="#FFCDD2"/>
<line x1="785" y1="231.33333333333331" x2="785" y2="255.33333333333331" class="l-led"/>
<line x1="780" y1="235.33333333333331" x2="780" y2="239.33333333333331" class="l-led"/>
<line x1="782" y1="233.33333333333331" x2="782" y2="237.33333333333331" class="l-led"/>
<text x="775" y="229.33333333333331" class="txt-red" font-size="10" text-anchor="middle">LED1</text>
<line class="l-led" x1="790" y1="243.33333333333331" x2="795" y2="243.33333333333331"/>
<polyline class="l-led" points="795,243.33333333333331 800,237.33333333333331 810,249.33333333333331 820,237.33333333333331 830,249.33333333333331 835,243.33333333333331"/>
<text x="815" y="259.3333333333333" class="txt-gray" font-size="9" text-anchor="middle">220R</text>
<line class="l-led" x1="835" y1="243.33333333333331" x2="835" y2="80"/>
<line class="l-led" x1="675" y1="290.0" x2="760" y2="290.0"/>
<polygon points="765,280.0 765,300.0 785,290.0" class="l-led" fill="#FFCDD2"/>
<line x1="785" y1="278.0" x2="785" y2="302.0" class="l-led"/>
<text x="775" y="276.0" class="txt-red" font-size="10" text-anchor="middle">LED2</text>
<line class="l-led" x1="790" y1="290.0" x2="795" y2="290.0"/>
<polyline class="l-led" points="795,290.0 800,284.0 810,296.0 820,284.0 830,296.0 835,290.0"/>
<text x="815" y="306.0" class="txt-gray" font-size="9" text-anchor="middle">220R</text>
<line class="l-led" x1="835" y1="290.0" x2="835" y2="80"/>
<line class="l-seg" x1="235" y1="220.0" x2="400" y2="220.0"/>
<line class="l-seg" x1="235" y1="243.33333333333331" x2="400" y2="243.33333333333331"/>
<line class="l-seg" x1="235" y1="266.6666666666667" x2="400" y2="266.6666666666667"/>
<line class="l-seg" x1="235" y1="290.0" x2="400" y2="290.0"/>
<line class="l-seg" x1="235" y1="313.33333333333337" x2="400" y2="313.33333333333337"/>
<line class="l-seg" x1="235" y1="336.66666666666663" x2="400" y2="336.66666666666663"/>
<line class="l-seg" x1="235" y1="360.0" x2="400" y2="360.0"/>
<line class="l-seg" x1="235" y1="383.33333333333337" x2="400" y2="383.33333333333337"/>
<text x="380" y="290.0" class="txt-purple" font-size="10" text-anchor="end">P0.0~P0.7</text>
<line class="l-seg" x1="65" y1="178.0" x2="20" y2="178.0"/>
<line class="l-seg" x1="20" y1="178.0" x2="20" y2="230"/>
<line class="l-seg" x1="20" y1="230" x2="400" y2="230"/>
<text x="10" y="182.0" class="txt-purple" font-size="9" text-anchor="end">P1.0 digit1</text>
<line class="l-seg" x1="65" y1="206.0" x2="30" y2="206.0"/>
<line class="l-seg" x1="30" y1="206.0" x2="30" y2="250"/>
<line class="l-seg" x1="30" y1="250" x2="400" y2="250"/>
<text x="20" y="210.0" class="txt-purple" font-size="9" text-anchor="end">P1.1 digit2</text>
<rect x="380" y="210" width="100" height="140" rx="4" fill="#1A1A2E" stroke="#6A1B9A" stroke-width="2"/>
<text x="430" y="260" text-anchor="middle" fill="#FF8F00" font-size="40" font-weight="bold">8</text>
<text x="430" y="280" text-anchor="middle" class="txt-purple" font-size="9">digit1</text>
<text x="450" y="260" text-anchor="middle" fill="#FF8F00" font-size="40" font-weight="bold">8</text>
<text x="450" y="280" text-anchor="middle" class="txt-purple" font-size="9">digit2</text>
<text x="430" y="340" text-anchor="middle" class="txt-purple" font-size="10">7SEG-MPX2-CA</text>
<text x="430" y="352" text-anchor="middle" class="txt-purple" font-size="9">(common anode)</text>
<line class="l-xtal" x1="65" y1="374.0" x2="30" y2="374.0"/>
<line class="l-xtal" x1="65" y1="402.0" x2="30" y2="402.0"/>
<line class="l-xtal" x1="30" y1="374.0" x2="30" y2="470"/>
<rect x="5" y="460" width="50" height="20" rx="3" fill="#00838F" stroke="#004D40" stroke-width="1.5"/>
<text x="30" y="475" text-anchor="middle" fill="white" font-size="10" font-weight="bold">11.0592MHz</text>
<line class="l-xtal" x1="5" y1="480" x2="5" y2="495"/>
<line class="l-xtal" x1="55" y1="480" x2="55" y2="495"/>
<line class="l-xtal" x1="5" y1="505" x2="5" y2="513"/>
<line class="l-xtal" x1="0" y1="513" x2="10" y2="513"/>
<line class="l-xtal" x1="0" y1="518" x2="10" y2="518"/>
<line class="l-xtal" x1="5" y1="518" x2="5" y2="530"/>
<text x="5" y="542" text-anchor="middle" class="txt-teal" font-size="9">30pF</text>
<line class="l-xtal" x1="85" y1="505" x2="85" y2="513"/>
<line class="l-xtal" x1="80" y1="513" x2="90" y2="513"/>
<line class="l-xtal" x1="80" y1="518" x2="90" y2="518"/>
<line class="l-xtal" x1="85" y1="518" x2="85" y2="530"/>
<text x="85" y="542" text-anchor="middle" class="txt-teal" font-size="9">30pF</text>
<line class="l-xtal" x1="5" y1="530" x2="85" y2="530"/>
<line class="l-gnd" x1="5" y1="530" x2="5" y2="470"/>
<text x="600" y="40" text-anchor="middle" font-size="22" font-weight="bold" fill="#1A237E">Serial Communication Experiment - Proteus Simulation</text>
<text x="600" y="62" text-anchor="middle" font-size="13" fill="#1565C0">UART Mode 1 | 9600 bps | 11.0592MHz TH1=0xFD | K1->LED1 ON  K2->LEDs OFF  K3->7SEG COUNT</text>
</svg>