<?xml version="1.0" encoding="utf-8" ?>
<svg baseProfile="full" height="880" version="1.1" width="1250" xmlns="http://www.w3.org/2000/svg" xmlns:ev="http://www.w3.org/2001/xml-events" xmlns:xlink="http://www.w3.org/1999/xlink"><defs /><rect fill="#eceff1" height="300" rx="6" stroke="#263238" stroke-width="3" width="170" x="480" y="280" /><text fill="#263238" font-family="Consolas,sans-serif" font-size="22" font-weight="bold" text-anchor="middle" x="565" y="418">AT89C52</text><text fill="#546e7a" font-family="Consolas,sans-serif" font-size="12" font-weight="normal" text-anchor="middle" x="565" y="444">PDIP-40</text><text fill="#546e7a" font-family="Consolas,sans-serif" font-size="11" font-weight="normal" text-anchor="middle" x="565" y="462">11.0592MHz</text><line fill="none" stroke="#1a237e" stroke-width="1.5" x1="455" x2="480" y1="20" y2="20" /><circle cx="480" cy="20" fill="#1a237e" r="3" /><text fill="#78909c" font-family="Consolas,sans-serif" font-size="9" font-weight="normal" text-anchor="end" x="449" y="23">1</text><text fill="#37474f" font-family="Consolas,sans-serif" font-size="10" font-weight="normal" text-anchor="end" x="447" y="23">P1.0</text><line fill="none" stroke="#1a237e" stroke-width="1.5" x1="455" x2="480" y1="38" y2="38" /><circle cx="480" cy="38" fill="#1a237e" r="3" /><text fill="#78909c" font-family="Consolas,sans-serif" font-size="9" font-weight="normal" text-anchor="end" x="449" y="41">2</text><text fill="#37474f" font-family="Consolas,sans-serif" font-size="10" font-weight="normal" text-anchor="end" x="447" y="41">P1.1</text><line fill="none" stroke="#1a237e" stroke-width="1.5" x1="455" x2="480" y1="56" y2="56" /><circle cx="480" cy="56" fill="#1a237e" r="3" /><text fill="#78909c" font-family="Consolas,sans-serif" font-size="9" font-weight="normal" text-anchor="end" x="449" y="59">3</text><text fill="#37474f" font-family="Consolas,sans-serif" font-size="10" font-weight="normal" text-anchor="end" x="447" y="59">P1.2</text><line fill="none" stroke="#1a237e" stroke-width="1.5" x1="455" x2="480" y1="74" y2="74" /><circle cx="480" cy="74" fill="#1a237e" r="3" /><text fill="#78909c" font-family="Consolas,sans-serif" font-size="9" font-weight="normal" text-anchor="end" x="449" y="77">4</text><text fill="#37474f" font-family="Consolas,sans-serif" font-size="10" font-weight="normal" text-anchor="end" x="447" y="77">P1.3</text><line fill="none" stroke="#1a237e" stroke-width="1.5" x1="455" x2="480" y1="92" y2="92" /><circle cx="480" cy="92" fill="#1a237e" r="3" /><text fill="#78909c" font-family="Consolas,sans-serif" font-size="9" font-weight="normal" text-anchor="end" x="449" y="95">5</text><text fill="#37474f" font-family="Consolas,sans-serif" font-size="10" font-weight="normal" text-anchor="end" x="447" y="95">P1.4</text><line fill="none" stroke="#1a237e" stroke-width="1.5" x1="455" x2="480" y1="110" y2="110" /><circle cx="480" cy="110" fill="#1a237e" r="3" /><text fill="#78909c" font-family="Consolas,sans-serif" font-size="9" font-weight="normal" text-anchor="end" x="449" y="113">6</text><text fill="#37474f" font-family="Consolas,sans-serif" font-size="10" font-weight="normal" text-anchor="end" x="447" y="113">P1.5</text><line fill="none" stroke="#1a237e" stroke-width="1.5" x1="455" x2="480" y1="128" y2="128" /><circle cx="480" cy="128" fill="#1a237e" r="3" /><text fill="#78909c" font-family="Consolas,sans-serif" font-size="9" font-weight="normal" text-anchor="end" x="449" y="131">7</text><text fill="#37474f" font-family="Consolas,sans-serif" font-size="10" font-weight="normal" text-anchor="end" x="447" y="131">P1.6</text><line fill="none" stroke="#1a237e" stroke-width="1.5" x1="455" x2="480" y1="146" y2="146" /><circle cx="480" cy="146" fill="#1a237e" r="3" /><text fill="#78909c" font-family="Consolas,sans-serif" font-size="9" font-weight="normal" text-anchor="end" x="449" y="149">8</text><text fill="#37474f" font-family="Consolas,sans-serif" font-size="10" font-weight="normal" text-anchor="end" x="447" y="149">P1.7</text><line fill="none" stroke="#1a237e" stroke-width="1.5" x1="455" x2="480" y1="178" y2="178" /><circle cx="480" cy="178" fill="#1a237e" r="3" /><text fill="#78909c" font-family="Consolas,sans-serif" font-size="9" font-weight="normal" text-anchor="end" x="449" y="181">9</text><text fill="#37474f" font-family="Consolas,sans-serif" font-size="10" font-weight="normal" text-anchor="end" x="447" y="181">RST</text><line fill="none" stroke="#1a237e" stroke-width="1.5" x1="455" x2="480" y1="208" y2="208" /><circle cx="480" cy="208" fill="#1a237e" r="3" /><text fill="#78909c" font-family="Consolas,sans-serif" font-size="9" font-weight="normal" text-anchor="end" x="449" y="211">10</text><text fill="#37474f" font-family="Consolas,sans-serif" font-size="10" font-weight="normal" text-anchor="end" x="447" y="211">P3.0/RXD</text><line fill="none" stroke="#1a237e" stroke-width="1.5" x1="455" x2="480" y1="226" y2="226" /><circle cx="480" cy="226" fill="#1a237e" r="3" /><text fill="#78909c" font-family="Consolas,sans-serif" font-size="9" font-weight="normal" text-anchor="end" x="449" y="229">11</text><text fill="#37474f" font-family="Consolas,sans-serif" font-size="10" font-weight="normal" text-anchor="end" x="447" y="229">P3.1/TXD</text><line fill="none" stroke="#1a237e" stroke-width="1.5" x1="455" x2="480" y1="244" y2="244" /><circle cx="480" cy="244" fill="#1a237e" r="3" /><text fill="#78909c" font-family="Consolas,sans-serif" font-size="9" font-weight="normal" text-anchor="end" x="449" y="247">12</text><text fill="#37474f" font-family="Consolas,sans-serif" font-size="10" font-weight="normal" text-anchor="end" x="447" y="247">P3.2/INT0</text><line fill="none" stroke="#1a237e" stroke-width="1.5" x1="455" x2="480" y1="262" y2="262" /><circle cx="480" cy="262" fill="#1a237e" r="3" /><text fill="#78909c" font-family="Consolas,sans-serif" font-size="9" font-weight="normal" text-anchor="end" x="449" y="265">13</text><text fill="#37474f" font-family="Consolas,sans-serif" font-size="10" font-weight="normal" text-anchor="end" x="447" y="265">P3.3/INT1</text><line fill="none" stroke="#1a237e" stroke-width="1.5" x1="455" x2="480" y1="490" y2="490" /><circle cx="480" cy="490" fill="#1a237e" r="3" /><text fill="#78909c" font-family="Consolas,sans-serif" font-size="9" font-weight="normal" text-anchor="end" x="449" y="493">18</text><text fill="#37474f" font-family="Consolas,sans-serif" font-size="10" font-weight="normal" text-anchor="end" x="447" y="493">XTAL2</text><line fill="none" stroke="#1a237e" stroke-width="1.5" x1="455" x2="480" y1="508" y2="508" /><circle cx="480" cy="508" fill="#1a237e" r="3" /><text fill="#78909c" font-family="Consolas,sans-serif" font-size="9" font-weight="normal" text-anchor="end" x="449" y="511">19</text><text fill="#37474f" font-family="Consolas,sans-serif" font-size="10" font-weight="normal" text-anchor="end" x="447" y="511">XTAL1</text><line fill="none" stroke="#1a237e" stroke-width="1.5" x1="650" x2="675" y1="20" y2="20" /><circle cx="650" cy="20" fill="#1a237e" r="3" /><text fill="#78909c" font-family="Consolas,sans-serif" font-size="9" font-weight="normal" text-anchor="end" x="669" y="23">40</text><text fill="#37474f" font-family="Consolas,sans-serif" font-size="10" font-weight="normal" text-anchor="start" x="683" y="23">VCC</text><line fill="none" stroke="#1a237e" stroke-width="1.5" x1="650" x2="675" y1="44" y2="44" /><circle cx="650" cy="44" fill="#1a237e" r="3" /><text fill="#78909c" font-family="Consolas,sans-serif" font-size="9" font-weight="normal" text-anchor="end" x="669" y="47">39</text><text fill="#37474f" font-family="Consolas,sans-serif" font-size="10" font-weight="normal" text-anchor="start" x="683" y="47">P0.0/AD0</text><line fill="none" stroke="#1a237e" stroke-width="1.5" x1="650" x2="675" y1="62" y2="62" /><circle cx="650" cy="62" fill="#1a237e" r="3" /><text fill="#78909c" font-family="Consolas,sans-serif" font-size="9" font-weight="normal" text-anchor="end" x="669" y="65">38</text><text fill="#37474f" font-family="Consolas,sans-serif" font-size="10" font-weight="normal" text-anchor="start" x="683" y="65">P0.1/AD1</text><line fill="none" stroke="#1a237e" stroke-width="1.5" x1="650" x2="675" y1="80" y2="80" /><circle cx="650" cy="80" fill="#1a237e" r="3" /><text fill="#78909c" font-family="Consolas,sans-serif" font-size="9" font-weight="normal" text-anchor="end" x="669" y="83">37</text><text fill="#37474f" font-family="Consolas,sans-serif" font-size="10" font-weight="normal" text-anchor="start" x="683" y="83">P0.2/AD2</text><line fill="none" stroke="#1a237e" stroke-width="1.5" x1="650" x2="675" y1="98" y2="98" /><circle cx="650" cy="98" fill="#1a237e" r="3" /><text fill="#78909c" font-family="Consolas,sans-serif" font-size="9" font-weight="normal" text-anchor="end" x="669" y="101">36</text><text fill="#37474f" font-family="Consolas,sans-serif" font-size="10" font-weight="normal" text-anchor="start" x="683" y="101">P0.3/AD3</text><line fill="none" stroke="#1a237e" stroke-width="1.5" x1="650" x2="675" y1="116" y2="116" /><circle cx="650" cy="116" fill="#1a237e" r="3" /><text fill="#78909c" font-family="Consolas,sans-serif" font-size="9" font-weight="normal" text-anchor="end" x="669" y="119">35</text><text fill="#37474f" font-family="Consolas,sans-serif" font-size="10" font-weight="normal" text-anchor="start" x="683" y="119">P0.4/AD4</text><line fill="none" stroke="#1a237e" stroke-width="1.5" x1="650" x2="675" y1="134" y2="134" /><circle cx="650" cy="134" fill="#1a237e" r="3" /><text fill="#78909c" font-family="Consolas,sans-serif" font-size="9" font-weight="normal" text-anchor="end" x="669" y="137">34</text><text fill="#37474f" font-family="Consolas,sans-serif" font-size="10" font-weight="normal" text-anchor="start" x="683" y="137">P0.5/AD5</text><line fill="none" stroke="#1a237e" stroke-width="1.5" x1="650" x2="675" y1="152" y2="152" /><circle cx="650" cy="152" fill="#1a237e" r="3" /><text fill="#78909c" font-family="Consolas,sans-serif" font-size="9" font-weight="normal" text-anchor="end" x="669" y="155">33</text><text fill="#37474f" font-family="Consolas,sans-serif" font-size="10" font-weight="normal" text-anchor="start" x="683" y="155">P0.6/AD6</text><line fill="none" stroke="#1a237e" stroke-width="1.5" x1="650" x2="675" y1="170" y2="170" /><circle cx="650" cy="170" fill="#1a237e" r="3" /><text fill="#78909c" font-family="Consolas,sans-serif" font-size="9" font-weight="normal" text-anchor="end" x="669" y="173">32</text><text fill="#37474f" font-family="Consolas,sans-serif" font-size="10" font-weight="normal" text-anchor="start" x="683" y="173">P0.7/AD7</text><line fill="none" stroke="#1a237e" stroke-width="1.5" x1="650" x2="675" y1="198" y2="198" /><circle cx="650" cy="198" fill="#1a237e" r="3" /><text fill="#78909c" font-family="Consolas,sans-serif" font-size="9" font-weight="normal" text-anchor="end" x="669" y="201">31</text><text fill="#37474f" font-family="Consolas,sans-serif" font-size="10" font-weight="normal" text-anchor="start" x="683" y="201">EA/VPP</text><line fill="none" stroke="#1a237e" stroke-width="1.5" x1="650" x2="675" y1="220" y2="220" /><circle cx="650" cy="220" fill="#1a237e" r="3" /><text fill="#78909c" font-family="Consolas,sans-serif" font-size="9" font-weight="normal" text-anchor="end" x="669" y="223">30</text><text fill="#37474f" font-family="Consolas,sans-serif" font-size="10" font-weight="normal" text-anchor="start" x="683" y="223">ALE/PROG</text><line fill="none" stroke="#1a237e" stroke-width="1.5" x1="650" x2="675" y1="238" y2="238" /><circle cx="650" cy="238" fill="#1a237e" r="3" /><text fill="#78909c" font-family="Consolas,sans-serif" font-size="9" font-weight="normal" text-anchor="end" x="669" y="241">29</text><text fill="#37474f" font-family="Consolas,sans-serif" font-size="10" font-weight="normal" text-anchor="start" x="683" y="241">PSEN</text><line fill="none" stroke="#1a237e" stroke-width="1.5" x1="650" x2="675" y1="472" y2="472" /><circle cx="650" cy="472" fill="#1a237e" r="3" /><text fill="#78909c" font-family="Consolas,sans-serif" font-size="9" font-weight="normal" text-anchor="end" x="669" y="475">28</text><text fill="#37474f" font-family="Consolas,sans-serif" font-size="10" font-weight="normal" text-anchor="start" x="683" y="475">P2.7/A15</text><line fill="none" stroke="#1a237e" stroke-width="1.5" x1="650" x2="675" y1="490" y2="490" /><circle cx="650" cy="490" fill="#1a237e" r="3" /><text fill="#78909c" font-family="Consolas,sans-serif" font-size="9" font-weight="normal" text-anchor="end" x="669" y="493">27</text><text fill="#37474f" font-family="Consolas,sans-serif" font-size="10" font-weight="normal" text-anchor="start" x="683" y="493">P2.6/A14</text><line fill="none" stroke="#1a237e" stroke-width="1.5" x1="650" x2="675" y1="508" y2="508" /><circle cx="650" cy="508" fill="#1a237e" r="3" /><text fill="#78909c" font-family="Consolas,sans-serif" font-size="9" font-weight="normal" text-anchor="end" x="669" y="511">26</text><text fill="#37474f" font-family="Consolas,sans-serif" font-size="10" font-weight="normal" text-anchor="start" x="683" y="511">P2.5/A13</text><line fill="none" stroke="#1a237e" stroke-width="1.5" x1="650" x2="675" y1="526" y2="526" /><circle cx="650" cy="526" fill="#1a237e" r="3" /><text fill="#78909c" font-family="Consolas,sans-serif" font-size="9" font-weight="normal" text-anchor="end" x="669" y="529">25</text><text fill="#37474f" font-family="Consolas,sans-serif" font-size="10" font-weight="normal" text-anchor="start" x="683" y="529">P2.4/A12</text><line fill="none" stroke="#1a237e" stroke-width="1.5" x1="650" x2="675" y1="544" y2="544" /><circle cx="650" cy="544" fill="#1a237e" r="3" /><text fill="#78909c" font-family="Consolas,sans-serif" font-size="9" font-weight="normal" text-anchor="end" x="669" y="547">24</text><text fill="#37474f" font-family="Consolas,sans-serif" font-size="10" font-weight="normal" text-anchor="start" x="683" y="547">P2.3/A11</text><line fill="none" stroke="#1a237e" stroke-width="1.5" x1="650" x2="675" y1="562" y2="562" /><circle cx="650" cy="562" fill="#1a237e" r="3" /><text fill="#78909c" font-family="Consolas,sans-serif" font-size="9" font-weight="normal" text-anchor="end" x="669" y="565">23</text><text fill="#37474f" font-family="Consolas,sans-serif" font-size="10" font-weight="normal" text-anchor="start" x="683" y="565">P2.2/A10</text><line fill="none" stroke="#1a237e" stroke-width="1.5" x1="610" x2="610" y1="262" y2="280" /><circle cx="610" cy="280" fill="#1a237e" r="3" /><text fill="#37474f" font-family="Consolas,sans-serif" font-size="9" font-weight="normal" text-anchor="middle" x="610" y="258">22: P2.1/A9</text><line fill="none" stroke="#1a237e" stroke-width="1.5" x1="560" x2="560" y1="262" y2="280" /><circle cx="560" cy="280" fill="#1a237e" r="3" /><text fill="#37474f" font-family="Consolas,sans-serif" font-size="9" font-weight="normal" text-anchor="middle" x="560" y="258">21: P2.0/A8</text><line fill="none" stroke="#1a237e" stroke-width="1.5" x1="510" x2="510" y1="580" y2="598" /><circle cx="510" cy="580" fill="#1a237e" r="3" /><text fill="#37474f" font-family="Consolas,sans-serif" font-size="9" font-weight="normal" text-anchor="middle" x="510" y="602">20: GND</text><line fill="none" stroke="#1a237e" stroke-width="1.5" x1="550" x2="550" y1="580" y2="598" /><circle cx="550" cy="580" fill="#1a237e" r="3" /><text fill="#37474f" font-family="Consolas,sans-serif" font-size="9" font-weight="normal" text-anchor="middle" x="550" y="602">17: P3.7/RD</text><line fill="none" stroke="#1a237e" stroke-width="1.5" x1="580" x2="580" y1="580" y2="598" /><circle cx="580" cy="580" fill="#1a237e" r="3" /><text fill="#37474f" font-family="Consolas,sans-serif" font-size="9" font-weight="normal" text-anchor="middle" x="580" y="602">16: P3.6/WR</text><line fill="none" stroke="#1a237e" stroke-width="1.5" x1="610" x2="610" y1="580" y2="598" /><circle cx="610" cy="580" fill="#1a237e" r="3" /><text fill="#37474f" font-family="Consolas,sans-serif" font-size="9" font-weight="normal" text-anchor="middle" x="610" y="602">15: P3.5/T1</text><line fill="none" stroke="#1a237e" stroke-width="1.5" x1="640" x2="640" y1="580" y2="598" /><circle cx="640" cy="580" fill="#1a237e" r="3" /><text fill="#37474f" font-family="Consolas,sans-serif" font-size="9" font-weight="normal" text-anchor="middle" x="640" y="602">14: P3.4/T0</text><line fill="none" stroke="#1a237e" stroke-width="1.5" x1="455" x2="250" y1="508" y2="508" /><line fill="none" stroke="#1a237e" stroke-width="1.5" x1="455" x2="250" y1="490" y2="490" /><rect fill="white" height="34" rx="3" stroke="#1a237e" stroke-width="1.5" width="44" x="228" y="504" /><text fill="#1a237e" font-family="Consolas,sans-serif" font-size="10" font-weight="normal" text-anchor="middle" x="250" y="518">11.0592MHz</text><text fill="#1a237e" font-family="Consolas,sans-serif" font-size="8" font-weight="normal" text-anchor="middle" x="250" y="530">X1 (CRYSTAL)</text><line fill="none" stroke="#1a237e" stroke-width="1.5" x1="250" x2="250" y1="538" y2="550" /><line fill="none" stroke="#1a237e" stroke-width="2.5" x1="238" x2="262" y1="542" y2="542" /><text fill="#0d47a1" font-family="Consolas,sans-serif" font-size="9" font-weight="normal" text-anchor="end" x="244" y="546">C1</text><line fill="none" stroke="#1a237e" stroke-width="1.5" x1="250" x2="250" y1="542" y2="558" /><line fill="none" stroke="#4a148c" stroke-width="1.5" x1="210" x2="290" y1="578" y2="578" /><line fill="none" stroke="#4a148c" stroke-width="1.5" x1="250" x2="250" y1="558" y2="578" /><text fill="#4a148c" font-family="Consolas,sans-serif" font-size="9" font-weight="normal" text-anchor="middle" x="250" y="590">GND</text><line fill="none" stroke="#1a237e" stroke-width="1.5" x1="250" x2="250" y1="520" y2="532" /><line fill="none" stroke="#1a237e" stroke-width="2.5" x1="238" x2="262" y1="524" y2="524" /><text fill="#0d47a1" font-family="Consolas,sans-serif" font-size="9" font-weight="normal" text-anchor="end" x="244" y="528">C2</text><line fill="none" stroke="#1a237e" stroke-width="1.5" x1="250" x2="250" y1="524" y2="540" /><line fill="none" stroke="#4a148c" stroke-width="1.5" x1="210" x2="290" y1="560" y2="560" /><line fill="none" stroke="#4a148c" stroke-width="1.5" x1="250" x2="250" y1="540" y2="560" /><text fill="#4a148c" font-family="Consolas,sans-serif" font-size="9" font-weight="normal" text-anchor="middle" x="250" y="572">GND</text><line fill="none" stroke="#1a237e" stroke-width="1.5" x1="455" x2="220" y1="458" y2="458" /><line fill="none" stroke="#1a237e" stroke-width="1.5" x1="220" x2="220" y1="458" y2="473" /><line fill="none" stroke="#1a237e" stroke-width="1.5" x1="220" x2="220" y1="473" y2="518" /><rect fill="white" height="28" rx="2" stroke="#4e342e" stroke-width="1.5" width="12" x="214" y="476" /><text fill="#4e342e" font-family="Consolas,sans-serif" font-size="9" font-weight="normal" text-anchor="end" x="208" y="494">R1=10K</text><line fill="none" stroke="#4a148c" stroke-width="1.5" x1="220" x2="220" y1="518" y2="533" /><text fill="#4a148c" font-family="Consolas,sans-serif" font-size="9" font-weight="normal" text-anchor="middle" x="220" y="540">GND</text><line fill="none" stroke="#1a237e" stroke-width="1.5" x1="220" x2="310" y1="468" y2="468" /><line fill="none" stroke="#1a237e" stroke-width="1.5" x1="310" x2="310" y1="468" y2="433" /><line fill="none" stroke="#1a237e" stroke-width="2.5" x1="300" x2="320" y1="433" y2="433" /><line fill="none" stroke="#1a237e" stroke-width="1.5" x1="310" x2="310" y1="433" y2="418" /><text fill="#0d47a1" font-family="Consolas,sans-serif" font-size="9" font-weight="normal" text-anchor="start" x="324" y="436">+ C2=10uF</text><line fill="none" stroke="#4a148c" stroke-width="1.5" x1="310" x2="310" y1="418" y2="403" /><text fill="#4a148c" font-family="Consolas,sans-serif" font-size="9" font-weight="normal" text-anchor="middle" x="310" y="399">+5V</text><line fill="none" stroke="#1a237e" stroke-width="1.5" x1="220" x2="310" y1="458" y2="458" /><line fill="none" stroke="#4a148c" stroke-width="1.5" x1="310" x2="310" y1="458" y2="403" /><rect fill="white" height="10" rx="2" stroke="#2e7d32" stroke-width="2" width="20" x="300" y="392" /><text fill="#2e7d32" font-family="Consolas,sans-serif" font-size="8" font-weight="normal" text-anchor="middle" x="310" y="402">RST</text><line fill="none" stroke="#4a148c" stroke-width="1.5" x1="675" x2="630" y1="478" y2="478" /><line fill="none" stroke="#4a148c" stroke-width="1.5" x1="630" x2="630" y1="478" y2="90" /><line fill="none" stroke="#4a148c" stroke-width="1.5" x1="675" x2="610" y1="300" y2="300" /><line fill="none" stroke="#4a148c" stroke-width="1.5" x1="610" x2="610" y1="300" y2="90" /><line fill="none" stroke="#4a148c" stroke-width="3" x1="610" x2="630" y1="90" y2="90" /><text fill="#4a148c" font-family="Consolas,sans-serif" font-size="10" font-weight="normal" text-anchor="middle" x="630" y="82">+5V 电源总线</text><line fill="none" stroke="#4a148c" stroke-width="1.5" x1="510" x2="510" y1="598" y2="145" /><line fill="none" stroke="#4a148c" stroke-width="3" x1="510" x2="630" y1="145" y2="145" /><text fill="#4a148c" font-family="Consolas,sans-serif" font-size="10" font-weight="normal" text-anchor="middle" x="630" y="137">GND 地线总线</text><line fill="none" stroke="#4a148c" stroke-width="1.5" x1="510" x2="510" y1="580" y2="145" /><line fill="none" stroke="#1a237e" stroke-width="1.5" x1="455" x2="75" y1="226" y2="226" /><line fill="none" stroke="#1a237e" stroke-width="1.5" x1="75" x2="75" y1="226" y2="178" /><line fill="none" stroke="#4a148c" stroke-width="1.5" x1="75" x2="103" y1="178" y2="178" /><line fill="none" stroke="#4a148c" stroke-width="1.5" x1="103" x2="103" y1="178" y2="163" /><rect fill="white" height="20" rx="1" stroke="#4e342e" stroke-width="1.5" width="8" x="71" y="168" /><text fill="#4e342e" font-family="Consolas,sans-serif" font-size="8" font-weight="normal" text-anchor="middle" x="89" y="158">10K</text><text fill="#4a148c" font-family="Consolas,sans-serif" font-size="7" font-weight="normal" text-anchor="middle" x="103" y="159">+5V</text><line fill="none" stroke="#1a237e" stroke-width="1.5" x1="75" x2="75" y1="228" y2="266" /><rect fill="white" height="10" rx="2" stroke="#2e7d32" stroke-width="2" width="16" x="67" y="231" /><text fill="#2e7d32" font-family="Consolas,sans-serif" font-size="9" font-weight="normal" text-anchor="middle" x="75" y="245">KEY1</text><text fill="#78909c" font-family="Consolas,sans-serif" font-size="7" font-weight="normal" text-anchor="middle" x="75" y="254">(启停)</text><line fill="none" stroke="#4a148c" stroke-width="1.5" x1="75" x2="75" y1="266" y2="278" /><text fill="#4a148c" font-family="Consolas,sans-serif" font-size="7" font-weight="normal" text-anchor="middle" x="75" y="286">GND</text><text fill="#78909c" font-family="Consolas,sans-serif" font-size="7" font-weight="normal" text-anchor="end" x="61" y="229">pin11</text><line fill="none" stroke="#1a237e" stroke-width="1.5" x1="455" x2="75" y1="208" y2="208" /><line fill="none" stroke="#1a237e" stroke-width="1.5" x1="75" x2="75" y1="208" y2="160" /><line fill="none" stroke="#4a148c" stroke-width="1.5" x1="75" x2="103" y1="160" y2="160" /><line fill="none" stroke="#4a148c" stroke-width="1.5" x1="103" x2="103" y1="160" y2="145" /><rect fill="white" height="20" rx="1" stroke="#4e342e" stroke-width="1.5" width="8" x="71" y="150" /><text fill="#4e342e" font-family="Consolas,sans-serif" font-size="8" font-weight="normal" text-anchor="middle" x="89" y="140">10K</text><text fill="#4a148c" font-family="Consolas,sans-serif" font-size="7" font-weight="normal" text-anchor="middle" x="103" y="141">+5V</text><line fill="none" stroke="#1a237e" stroke-width="1.5" x1="75" x2="75" y1="210" y2="248" /><rect fill="white" height="10" rx="2" stroke="#2e7d32" stroke-width="2" width="16" x="67" y="213" /><text fill="#2e7d32" font-family="Consolas,sans-serif" font-size="9" font-weight="normal" text-anchor="middle" x="75" y="227">KEY2</text><text fill="#78909c" font-family="Consolas,sans-serif" font-size="7" font-weight="normal" text-anchor="middle" x="75" y="236">(风速+)</text><line fill="none" stroke="#4a148c" stroke-width="1.5" x1="75" x2="75" y1="248" y2="260" /><text fill="#4a148c" font-family="Consolas,sans-serif" font-size="7" font-weight="normal" text-anchor="middle" x="75" y="268">GND</text><text fill="#78909c" font-family="Consolas,sans-serif" font-size="7" font-weight="normal" text-anchor="end" x="61" y="211">pin10</text><line fill="none" stroke="#1a237e" stroke-width="1.5" x1="455" x2="75" y1="244" y2="244" /><line fill="none" stroke="#1a237e" stroke-width="1.5" x1="75" x2="75" y1="244" y2="196" /><line fill="none" stroke="#4a148c" stroke-width="1.5" x1="75" x2="103" y1="196" y2="196" /><line fill="none" stroke="#4a148c" stroke-width="1.5" x1="103" x2="103" y1="196" y2="181" /><rect fill="white" height="20" rx="1" stroke="#4e342e" stroke-width="1.5" width="8" x="71" y="186" /><text fill="#4e342e" font-family="Consolas,sans-serif" font-size="8" font-weight="normal" text-anchor="middle" x="89" y="176">10K</text><text fill="#4a148c" font-family="Consolas,sans-serif" font-size="7" font-weight="normal" text-anchor="middle" x="103" y="177">+5V</text><line fill="none" stroke="#1a237e" stroke-width="1.5" x1="75" x2="75" y1="246" y2="284" /><rect fill="white" height="10" rx="2" stroke="#2e7d32" stroke-width="2" width="16" x="67" y="249" /><text fill="#2e7d32" font-family="Consolas,sans-serif" font-size="9" font-weight="normal" text-anchor="middle" x="75" y="263">KEY3</text><text fill="#78909c" font-family="Consolas,sans-serif" font-size="7" font-weight="normal" text-anchor="middle" x="75" y="272">(风速-)</text><line fill="none" stroke="#4a148c" stroke-width="1.5" x1="75" x2="75" y1="284" y2="296" /><text fill="#4a148c" font-family="Consolas,sans-serif" font-size="7" font-weight="normal" text-anchor="middle" x="75" y="304">GND</text><text fill="#78909c" font-family="Consolas,sans-serif" font-size="7" font-weight="normal" text-anchor="end" x="61" y="247">pin12</text><line fill="none" stroke="#1a237e" stroke-width="1.5" x1="455" x2="75" y1="262" y2="262" /><line fill="none" stroke="#1a237e" stroke-width="1.5" x1="75" x2="75" y1="262" y2="214" /><line fill="none" stroke="#4a148c" stroke-width="1.5" x1="75" x2="103" y1="214" y2="214" /><line fill="none" stroke="#4a148c" stroke-width="1.5" x1="103" x2="103" y1="214" y2="199" /><rect fill="white" height="20" rx="1" stroke="#4e342e" stroke-width="1.5" width="8" x="71" y="204" /><text fill="#4e342e" font-family="Consolas,sans-serif" font-size="8" font-weight="normal" text-anchor="middle" x="89" y="194">10K</text><text fill="#4a148c" font-family="Consolas,sans-serif" font-size="7" font-weight="normal" text-anchor="middle" x="103" y="195">+5V</text><line fill="none" stroke="#1a237e" stroke-width="1.5" x1="75" x2="75" y1="264" y2="302" /><rect fill="white" height="10" rx="2" stroke="#2e7d32" stroke-width="2" width="16" x="67" y="267" /><text fill="#2e7d32" font-family="Consolas,sans-serif" font-size="9" font-weight="normal" text-anchor="middle" x="75" y="281">KEY4</text><text fill="#78909c" font-family="Consolas,sans-serif" font-size="7" font-weight="normal" text-anchor="middle" x="75" y="290">(模式/定时)</text><line fill="none" stroke="#4a148c" stroke-width="1.5" x1="75" x2="75" y1="302" y2="314" /><text fill="#4a148c" font-family="Consolas,sans-serif" font-size="7" font-weight="normal" text-anchor="middle" x="75" y="322">GND</text><text fill="#78909c" font-family="Consolas,sans-serif" font-size="7" font-weight="normal" text-anchor="end" x="61" y="265">pin13</text><rect fill="white" height="180" rx="4" stroke="#1565c0" stroke-width="2.5" width="220" x="860" y="170" /><text fill="#1565c0" font-family="Consolas,sans-serif" font-size="14" font-weight="bold" text-anchor="middle" x="970" y="188">LM016L</text><text fill="#1565c0" font-family="Consolas,sans-serif" font-size="10" font-weight="normal" text-anchor="middle" x="970" y="203">(LCD1602)</text><rect fill="#e3f2fd" height="100" rx="2" stroke="#90caf9" stroke-width="1" width="155" x="890" y="215" /><line fill="none" stroke="#1a237e" stroke-width="1.5" x1="860" x2="840" y1="50" y2="50" /><text fill="#4e342e" font-family="Consolas,sans-serif" font-size="9" font-weight="normal" text-anchor="end" x="838" y="53">1:VSS</text><line fill="none" stroke="#1a237e" stroke-width="1.5" x1="860" x2="840" y1="65" y2="65" /><text fill="#4a148c" font-family="Consolas,sans-serif" font-size="9" font-weight="normal" text-anchor="end" x="838" y="68">2:VDD</text><line fill="none" stroke="#1a237e" stroke-width="1.5" x1="860" x2="840" y1="80" y2="80" /><text fill="#4e342e" font-family="Consolas,sans-serif" font-size="9" font-weight="normal" text-anchor="end" x="838" y="83">3:VEE</text><line fill="none" stroke="#1a237e" stroke-width="1.5" x1="860" x2="840" y1="95" y2="95" /><text fill="#1565c0" font-family="Consolas,sans-serif" font-size="9" font-weight="normal" text-anchor="end" x="838" y="98">4:RS</text><line fill="none" stroke="#1a237e" stroke-width="1.5" x1="860" x2="840" y1="110" y2="110" /><text fill="#1565c0" font-family="Consolas,sans-serif" font-size="9" font-weight="normal" text-anchor="end" x="838" y="113">5:RW</text><line fill="none" stroke="#1a237e" stroke-width="1.5" x1="860" x2="840" y1="125" y2="125" /><text fill="#1565c0" font-family="Consolas,sans-serif" font-size="9" font-weight="normal" text-anchor="end" x="838" y="128">6:E</text><line fill="none" stroke="#1a237e" stroke-width="1.5" x1="860" x2="840" y1="140" y2="140" /><text fill="#1565c0" font-family="Consolas,sans-serif" font-size="9" font-weight="normal" text-anchor="end" x="838" y="143">7:D0</text><line fill="none" stroke="#1a237e" stroke-width="1.5" x1="860" x2="840" y1="150" y2="150" /><text fill="#1565c0" font-family="Consolas,sans-serif" font-size="9" font-weight="normal" text-anchor="end" x="838" y="153">8:D1</text><line fill="none" stroke="#1a237e" stroke-width="1.5" x1="860" x2="840" y1="160" y2="160" /><text fill="#1565c0" font-family="Consolas,sans-serif" font-size="9" font-weight="normal" text-anchor="end" x="838" y="163">9:D2</text><line fill="none" stroke="#1a237e" stroke-width="1.5" x1="860" x2="840" y1="170" y2="170" /><text fill="#1565c0" font-family="Consolas,sans-serif" font-size="9" font-weight="normal" text-anchor="end" x="838" y="173">10:D3</text><line fill="none" stroke="#1a237e" stroke-width="1.5" x1="860" x2="840" y1="180" y2="180" /><text fill="#1565c0" font-family="Consolas,sans-serif" font-size="9" font-weight="normal" text-anchor="end" x="838" y="183">11:D4</text><line fill="none" stroke="#1a237e" stroke-width="1.5" x1="860" x2="840" y1="190" y2="190" /><text fill="#1565c0" font-family="Consolas,sans-serif" font-size="9" font-weight="normal" text-anchor="end" x="838" y="193">12:D5</text><line fill="none" stroke="#1a237e" stroke-width="1.5" x1="860" x2="840" y1="200" y2="200" /><text fill="#1565c0" font-family="Consolas,sans-serif" font-size="9" font-weight="normal" text-anchor="end" x="838" y="203">13:D6</text><line fill="none" stroke="#1a237e" stroke-width="1.5" x1="860" x2="840" y1="210" y2="210" /><text fill="#1565c0" font-family="Consolas,sans-serif" font-size="9" font-weight="normal" text-anchor="end" x="838" y="213">14:D7</text><line fill="none" stroke="#4a148c" stroke-width="1.5" x1="840" x2="840" y1="50" y2="145" /><line fill="none" stroke="#1a237e" stroke-width="1.5" x1="840" x2="865" y1="65" y2="65" /><line fill="none" stroke="#4a148c" stroke-width="1.5" x1="865" x2="630" y1="65" y2="90" /><text fill="#4a148c" font-family="Consolas,sans-serif" font-size="7" font-weight="normal" text-anchor="middle" x="852" y="68">VDD=+5V</text><line fill="none" stroke="#4a148c" stroke-width="1.5" x1="840" x2="840" y1="80" y2="145" /><text fill="#4e342e" font-family="Consolas,sans-serif" font-size="7" font-weight="normal" text-anchor="middle" x="850" y="88">VSS,VEE -&gt; GND</text><line fill="none" stroke="#1a237e" stroke-width="1.5" x1="675" x2="838" y1="490" y2="490" /><line fill="none" stroke="#1a237e" stroke-width="1.5" x1="838" x2="838" y1="490" y2="95" /><line fill="none" stroke="#1a237e" stroke-width="1.5" x1="838" x2="860" y1="95" y2="95" /><text fill="#1565c0" font-family="Consolas,sans-serif" font-size="8" font-weight="normal" text-anchor="start" x="678" y="493">pin27:P2.6-&gt;RS</text><line fill="none" stroke="#1a237e" stroke-width="1.5" x1="675" x2="838" y1="508" y2="508" /><line fill="none" stroke="#1a237e" stroke-width="1.5" x1="838" x2="838" y1="508" y2="110" /><line fill="none" stroke="#1a237e" stroke-width="1.5" x1="838" x2="860" y1="110" y2="110" /><text fill="#1565c0" font-family="Consolas,sans-serif" font-size="8" font-weight="normal" text-anchor="start" x="678" y="511">pin26:P2.5-&gt;RW</text><line fill="none" stroke="#1a237e" stroke-width="1.5" x1="675" x2="838" y1="472" y2="472" /><line fill="none" stroke="#1a237e" stroke-width="1.5" x1="838" x2="838" y1="472" y2="125" /><line fill="none" stroke="#1a237e" stroke-width="1.5" x1="838" x2="860" y1="125" y2="125" /><text fill="#1565c0" font-family="Consolas,sans-serif" font-size="8" font-weight="normal" text-anchor="start" x="678" y="475">pin28:P2.7-&gt;E</text><line fill="none" stroke="#1a237e" stroke-dasharray="4,3" stroke-width="1.5" x1="675" x2="838" y1="44" y2="44" /><line fill="none" stroke="#1a237e" stroke-width="1.5" x1="838" x2="838" y1="44" y2="140" /><line fill="none" stroke="#1a237e" stroke-width="1.5" x1="838" x2="860" y1="140" y2="140" /><line fill="none" stroke="#1a237e" stroke-dasharray="4,3" stroke-width="1.5" x1="675" x2="838" y1="62" y2="62" /><line fill="none" stroke="#1a237e" stroke-width="1.5" x1="838" x2="838" y1="62" y2="150" /><line fill="none" stroke="#1a237e" stroke-width="1.5" x1="838" x2="860" y1="150" y2="150" /><line fill="none" stroke="#1a237e" stroke-dasharray="4,3" stroke-width="1.5" x1="675" x2="838" y1="80" y2="80" /><line fill="none" stroke="#1a237e" stroke-width="1.5" x1="838" x2="838" y1="80" y2="160" /><line fill="none" stroke="#1a237e" stroke-width="1.5" x1="838" x2="860" y1="160" y2="160" /><line fill="none" stroke="#1a237e" stroke-dasharray="4,3" stroke-width="1.5" x1="675" x2="838" y1="98" y2="98" /><line fill="none" stroke="#1a237e" stroke-width="1.5" x1="838" x2="838" y1="98" y2="170" /><line fill="none" stroke="#1a237e" stroke-width="1.5" x1="838" x2="860" y1="170" y2="170" /><line fill="none" stroke="#1a237e" stroke-dasharray="4,3" stroke-width="1.5" x1="675" x2="838" y1="116" y2="116" /><line fill="none" stroke="#1a237e" stroke-width="1.5" x1="838" x2="838" y1="116" y2="180" /><line fill="none" stroke="#1a237e" stroke-width="1.5" x1="838" x2="860" y1="180" y2="180" /><line fill="none" stroke="#1a237e" stroke-dasharray="4,3" stroke-width="1.5" x1="675" x2="838" y1="134" y2="134" /><line fill="none" stroke="#1a237e" stroke-width="1.5" x1="838" x2="838" y1="134" y2="190" /><line fill="none" stroke="#1a237e" stroke-width="1.5" x1="838" x2="860" y1="190" y2="190" /><line fill="none" stroke="#1a237e" stroke-dasharray="4,3" stroke-width="1.5" x1="675" x2="838" y1="152" y2="152" /><line fill="none" stroke="#1a237e" stroke-width="1.5" x1="838" x2="838" y1="152" y2="200" /><line fill="none" stroke="#1a237e" stroke-width="1.5" x1="838" x2="860" y1="200" y2="200" /><line fill="none" stroke="#1a237e" stroke-dasharray="4,3" stroke-width="1.5" x1="675" x2="838" y1="170" y2="170" /><line fill="none" stroke="#1a237e" stroke-width="1.5" x1="838" x2="838" y1="170" y2="210" /><line fill="none" stroke="#1a237e" stroke-width="1.5" x1="838" x2="860" y1="210" y2="210" /><text fill="#78909c" font-family="Consolas,sans-serif" font-size="9" font-weight="normal" text-anchor="middle" x="755" y="37">P0.0~P0.7 (pin39→32) -&gt; D0~D7 (pin7→14)</text><rect fill="#fff3e0" height="100" rx="8" stroke="#e65100" stroke-width="2.5" width="140" x="790" y="600" /><text fill="#e65100" font-family="Consolas,sans-serif" font-size="13" font-weight="bold" text-anchor="middle" x="860" y="620">MOTOR-STEPPER</text><text fill="#e65100" font-family="Consolas,sans-serif" font-size="11" font-weight="normal" text-anchor="middle" x="860" y="638">(28BYJ-48)</text><text fill="#e65100" font-family="Consolas,sans-serif" font-size="9" font-weight="normal" text-anchor="middle" x="860" y="660">P1.0→A  P1.1→B</text><text fill="#e65100" font-family="Consolas,sans-serif" font-size="9" font-weight="normal" text-anchor="middle" x="860" y="676">P1.2→C  P1.3→D</text><text fill="#4a148c" font-family="Consolas,sans-serif" font-size="9" font-weight="normal" text-anchor="middle" x="860" y="692">COM→+5V</text><line fill="none" stroke="#1a237e" stroke-width="1.5" x1="455" x2="130" y1="20" y2="20" /><line fill="none" stroke="#1a237e" stroke-width="1.5" x1="130" x2="130" y1="20" y2="710" /><line fill="none" stroke="#1a237e" stroke-width="1.5" x1="130" x2="775" y1="710" y2="710" /><line fill="none" stroke="#1a237e" stroke-width="1.5" x1="775" x2="775" y1="710" y2="610" /><line fill="none" stroke="#1a237e" stroke-width="1.5" x1="775" x2="790" y1="610" y2="610" /><line fill="none" stroke="#1a237e" stroke-width="1.5" x1="455" x2="130" y1="38" y2="38" /><line fill="none" stroke="#1a237e" stroke-width="1.5" x1="130" x2="130" y1="38" y2="728" /><line fill="none" stroke="#1a237e" stroke-width="1.5" x1="130" x2="775" y1="728" y2="728" /><line fill="none" stroke="#1a237e" stroke-width="1.5" x1="775" x2="775" y1="728" y2="628" /><line fill="none" stroke="#1a237e" stroke-width="1.5" x1="775" x2="790" y1="628" y2="628" /><line fill="none" stroke="#1a237e" stroke-width="1.5" x1="455" x2="130" y1="56" y2="56" /><line fill="none" stroke="#1a237e" stroke-width="1.5" x1="130" x2="130" y1="56" y2="746" /><line fill="none" stroke="#1a237e" stroke-width="1.5" x1="130" x2="775" y1="746" y2="746" /><line fill="none" stroke="#1a237e" stroke-width="1.5" x1="775" x2="775" y1="746" y2="646" /><line fill="none" stroke="#1a237e" stroke-width="1.5" x1="775" x2="790" y1="646" y2="646" /><line fill="none" stroke="#1a237e" stroke-width="1.5" x1="455" x2="130" y1="74" y2="74" /><line fill="none" stroke="#1a237e" stroke-width="1.5" x1="130" x2="130" y1="74" y2="764" /><line fill="none" stroke="#1a237e" stroke-width="1.5" x1="130" x2="775" y1="764" y2="764" /><line fill="none" stroke="#1a237e" stroke-width="1.5" x1="775" x2="775" y1="764" y2="664" /><line fill="none" stroke="#1a237e" stroke-width="1.5" x1="775" x2="790" y1="664" y2="664" /><text fill="#e65100" font-family="Consolas,sans-serif" font-size="9" font-weight="normal" text-anchor="end" x="120" y="24">pin1-4: P1.0~P1.3</text><text fill="#e65100" font-family="Consolas,sans-serif" font-size="9" font-weight="normal" text-anchor="start" x="140" y="34">→ A,B,C,D</text><line fill="none" stroke="#4a148c" stroke-width="1.5" x1="775" x2="130" y1="680" y2="680" /><line fill="none" stroke="#4a148c" stroke-width="1.5" x1="130" x2="130" y1="680" y2="90" /><text fill="#4a148c" font-family="Consolas,sans-serif" font-size="9" font-weight="normal" text-anchor="end" x="120" y="688">pin5:COM=+5V</text><rect fill="white" height="30" rx="4" stroke="#e65100" stroke-dasharray="4,3" stroke-width="1.5" width="180" x="50" y="620" /><text fill="#e65100" font-family="Consolas,sans-serif" font-size="10" font-weight="normal" text-anchor="middle" x="140" y="640">建议通过 ULN2003 驱动电机</text><line fill="none" stroke="#1a237e" stroke-width="1.5" x1="560" x2="560" y1="262" y2="680" /><line fill="none" stroke="#1a237e" stroke-width="1.5" x1="560" x2="280" y1="680" y2="680" /><line fill="none" stroke="#1a237e" stroke-width="1.5" x1="240" x2="230" y1="680" y2="680" /><rect fill="white" height="16" rx="2" stroke="#4e342e" stroke-width="1.5" width="16" x="237" y="672" /><text fill="#4e342e" font-family="Consolas,sans-serif" font-size="8" font-weight="normal" text-anchor="end" x="239" y="668">220Ω</text><line fill="none" stroke="#1a237e" stroke-width="1.5" x1="290" x2="296" y1="680" y2="680" /><polygon fill="white" points="298,672 304,680 298,688" stroke="#c62828" stroke-width="1.5" /><line fill="none" stroke="#c62828" stroke-width="1.5" x1="296" x2="296" y1="676" y2="684" /><text fill="#c62828" font-family="Consolas,sans-serif" font-size="10" font-weight="normal" text-anchor="start" x="312" y="684">D1</text><text fill="#78909c" font-family="Consolas,sans-serif" font-size="8" font-weight="normal" text-anchor="start" x="312" y="672">电源指示</text><text fill="#c62828" font-family="Consolas,sans-serif" font-size="8" font-weight="normal" text-anchor="middle" x="560" y="258">pin21:D1</text><line fill="none" stroke="#4a148c" stroke-width="1.5" x1="304" x2="304" y1="680" y2="145" /><text fill="#4a148c" font-family="Consolas,sans-serif" font-size="8" font-weight="normal" text-anchor="middle" x="304" y="408">GND</text><line fill="none" stroke="#1a237e" stroke-width="1.5" x1="610" x2="610" y1="262" y2="735" /><line fill="none" stroke="#1a237e" stroke-width="1.5" x1="610" x2="280" y1="735" y2="735" /><line fill="none" stroke="#1a237e" stroke-width="1.5" x1="240" x2="230" y1="735" y2="735" /><rect fill="white" height="16" rx="2" stroke="#4e342e" stroke-width="1.5" width="16" x="237" y="727" /><text fill="#4e342e" font-family="Consolas,sans-serif" font-size="8" font-weight="normal" text-anchor="end" x="239" y="723">220Ω</text><line fill="none" stroke="#1a237e" stroke-width="1.5" x1="290" x2="296" y1="735" y2="735" /><polygon fill="white" points="298,727 304,735 298,743" stroke="#c62828" stroke-width="1.5" /><line fill="none" stroke="#c62828" stroke-width="1.5" x1="296" x2="296" y1="731" y2="739" /><text fill="#c62828" font-family="Consolas,sans-serif" font-size="10" font-weight="normal" text-anchor="start" x="312" y="739">D2</text><text fill="#78909c" font-family="Consolas,sans-serif" font-size="8" font-weight="normal" text-anchor="start" x="312" y="727">模式指示</text><text fill="#c62828" font-family="Consolas,sans-serif" font-size="8" font-weight="normal" text-anchor="middle" x="610" y="258">pin22:D2</text><line fill="none" stroke="#4a148c" stroke-width="1.5" x1="304" x2="304" y1="735" y2="145" /><text fill="#4a148c" font-family="Consolas,sans-serif" font-size="8" font-weight="normal" text-anchor="middle" x="304" y="436">GND</text><line fill="none" stroke="#1a237e" stroke-width="1.5" x1="550" x2="550" y1="508" y2="710" /><line fill="none" stroke="#1a237e" stroke-width="1.5" x1="550" x2="600" y1="710" y2="710" /><rect fill="#e0f2f1" height="20" rx="3" stroke="#00695c" stroke-width="2" width="30" x="582" y="700" /><text fill="#00695c" font-family="Consolas,sans-serif" font-size="8" font-weight="normal" text-anchor="start" x="592" y="714">BUZZER</text><line fill="none" stroke="#4a148c" stroke-width="1.5" x1="612" x2="612" y1="710" y2="145" /><text fill="#4a148c" font-family="Consolas,sans-serif" font-size="8" font-weight="normal" text-anchor="middle" x="612" y="423">GND</text><text fill="#00695c" font-family="Consolas,sans-serif" font-size="8" font-weight="normal" text-anchor="end" x="540" y="511">pin26:P2.5</text><text fill="#78909c" font-family="Consolas,sans-serif" font-size="7" font-weight="normal" text-anchor="end" x="540" y="522">(LCD_RW共用!)</text><text fill="#263238" font-family="Consolas,sans-serif" font-size="20" font-weight="bold" text-anchor="middle" x="625" y="30">智能风扇系统 — Proteus 仿真接线图 (物理引脚版)</text><text fill="#546e7a" font-family="Consolas,sans-serif" font-size="12" font-weight="normal" text-anchor="middle" x="625" y="48">芯片: AT89C52  PDIP-40  @ 11.0592MHz  |  仿真版: main_proteus.c</text><line fill="none" stroke="#1a237e" stroke-width="3" x1="30" x2="50" y1="840" y2="840" /><text fill="#1a237e" font-family="Consolas,sans-serif" font-size="10" font-weight="normal" text-anchor="start" x="56" y="844">信号线</text><line fill="none" stroke="#4a148c" stroke-width="3" x1="160" x2="180" y1="840" y2="840" /><text fill="#4a148c" font-family="Consolas,sans-serif" font-size="10" font-weight="normal" text-anchor="start" x="186" y="844">电源/地</text><line fill="none" stroke="#2e7d32" stroke-width="3" x1="290" x2="310" y1="840" y2="840" /><text fill="#2e7d32" font-family="Consolas,sans-serif" font-size="10" font-weight="normal" text-anchor="start" x="316" y="844">按键</text><line fill="none" stroke="#c62828" stroke-width="3" x1="420" x2="440" y1="840" y2="840" /><text fill="#c62828" font-family="Consolas,sans-serif" font-size="10" font-weight="normal" text-anchor="start" x="446" y="844">LED</text><line fill="none" stroke="#00695c" stroke-width="3" x1="550" x2="570" y1="840" y2="840" /><text fill="#00695c" font-family="Consolas,sans-serif" font-size="10" font-weight="normal" text-anchor="start" x="576" y="844">蜂鸣器</text><line fill="none" stroke="#e65100" stroke-width="3" x1="680" x2="700" y1="840" y2="840" /><text fill="#e65100" font-family="Consolas,sans-serif" font-size="10" font-weight="normal" text-anchor="start" x="706" y="844">步进电机</text><line fill="none" stroke="#1565c0" stroke-width="3" x1="810" x2="830" y1="840" y2="840" /><text fill="#1565c0" font-family="Consolas,sans-serif" font-size="10" font-weight="normal" text-anchor="start" x="836" y="844">LCD</text><text fill="#b0bec5" font-family="Consolas,sans-serif" font-size="9" font-weight="normal" text-anchor="end" x="1220" y="860">注意: 所有引脚编号为 Proteus 中元件的物理引脚号</text></svg>